<svg width="220" height="36" viewBox="0 0 220 36" fill="none" xmlns="http://www.w3.org/2000/svg">
<path d="M1.10352 5.67285C1.10352 3.18757 3.11823 1.17285 5.60352 1.17285H214.292C216.777 1.17285 218.792 3.18757 218.792 5.67285V30.2518C218.792 32.7371 216.777 34.7518 214.292 34.7518H5.60351C3.11823 34.7518 1.10352 32.7371 1.10352 30.2518V5.67285Z" fill="white" stroke="#044A9B"/>
<rect x="186.832" y="9.33398" width="22.6376" height="17.2568" rx="4.75" fill="white" stroke="#044A9B" stroke-width="0.5"/>
<path d="M187.516 10.9531L194.708 17.3461C196.602 19.03 199.457 19.03 201.351 17.3461L208.543 10.9531" stroke="#044A9B" stroke-width="0.5"/>
<path d="M24.5049 15.0752V23H23.1426V15.0752H24.5049ZM23.04 12.9731C23.04 12.7534 23.106 12.5679 23.2378 12.4165C23.3745 12.2651 23.5747 12.1895 23.8384 12.1895C24.0972 12.1895 24.2949 12.2651 24.4316 12.4165C24.5732 12.5679 24.644 12.7534 24.644 12.9731C24.644 13.1831 24.5732 13.3638 24.4316 13.5151C24.2949 13.6616 24.0972 13.7349 23.8384 13.7349C23.5747 13.7349 23.3745 13.6616 23.2378 13.5151C23.106 13.3638 23.04 13.1831 23.04 12.9731ZM28.0352 16.7671V23H26.6802V15.0752H27.9619L28.0352 16.7671ZM27.7129 18.7373L27.1489 18.7153C27.1538 18.1733 27.2344 17.6729 27.3906 17.2139C27.5469 16.75 27.7666 16.3472 28.0498 16.0054C28.333 15.6636 28.6699 15.3999 29.0605 15.2144C29.4561 15.0239 29.8931 14.9287 30.3716 14.9287C30.7622 14.9287 31.1138 14.9824 31.4263 15.0898C31.7388 15.1924 32.0049 15.3584 32.2246 15.5879C32.4492 15.8174 32.6201 16.1152 32.7373 16.4814C32.8545 16.8428 32.9131 17.2847 32.9131 17.8071V23H31.5508V17.7925C31.5508 17.3774 31.4897 17.0454 31.3677 16.7964C31.2456 16.5425 31.0674 16.3594 30.833 16.2471C30.5986 16.1299 30.3105 16.0713 29.9688 16.0713C29.6318 16.0713 29.3242 16.1421 29.0459 16.2837C28.7725 16.4253 28.5356 16.6206 28.3354 16.8696C28.1401 17.1187 27.9863 17.4043 27.874 17.7266C27.7666 18.0439 27.7129 18.3809 27.7129 18.7373ZM36.9927 23H35.6377V14.2402C35.6377 13.6689 35.7402 13.188 35.9453 12.7974C36.1553 12.4019 36.4556 12.104 36.8462 11.9038C37.2368 11.6987 37.7007 11.5962 38.2378 11.5962C38.394 11.5962 38.5503 11.606 38.7065 11.6255C38.8677 11.645 39.0239 11.6743 39.1753 11.7134L39.1021 12.8193C38.9995 12.7949 38.8823 12.7778 38.7505 12.7681C38.6235 12.7583 38.4966 12.7534 38.3696 12.7534C38.0815 12.7534 37.8325 12.812 37.6226 12.9292C37.4175 13.0415 37.2612 13.2075 37.1538 13.4272C37.0464 13.647 36.9927 13.918 36.9927 14.2402V23ZM38.6772 15.0752V16.1152H34.3853V15.0752H38.6772ZM39.8271 19.1255V18.957C39.8271 18.3857 39.9102 17.856 40.0762 17.3677C40.2422 16.8745 40.4814 16.4473 40.7939 16.0859C41.1064 15.7197 41.4849 15.4365 41.9292 15.2363C42.3735 15.0312 42.8716 14.9287 43.4233 14.9287C43.98 14.9287 44.4805 15.0312 44.9248 15.2363C45.374 15.4365 45.7549 15.7197 46.0674 16.0859C46.3848 16.4473 46.6265 16.8745 46.7925 17.3677C46.9585 17.856 47.0415 18.3857 47.0415 18.957V19.1255C47.0415 19.6968 46.9585 20.2266 46.7925 20.7148C46.6265 21.2031 46.3848 21.6304 46.0674 21.9966C45.7549 22.3579 45.3765 22.6411 44.9321 22.8462C44.4927 23.0464 43.9946 23.1465 43.438 23.1465C42.8813 23.1465 42.3809 23.0464 41.9365 22.8462C41.4922 22.6411 41.1113 22.3579 40.7939 21.9966C40.4814 21.6304 40.2422 21.2031 40.0762 20.7148C39.9102 20.2266 39.8271 19.6968 39.8271 19.1255ZM41.1821 18.957V19.1255C41.1821 19.521 41.2285 19.8945 41.3213 20.2461C41.4141 20.5928 41.5532 20.9004 41.7388 21.1689C41.9292 21.4375 42.166 21.6499 42.4492 21.8062C42.7324 21.9575 43.062 22.0332 43.438 22.0332C43.8091 22.0332 44.1338 21.9575 44.4121 21.8062C44.6953 21.6499 44.9297 21.4375 45.1152 21.1689C45.3008 20.9004 45.4399 20.5928 45.5327 20.2461C45.6304 19.8945 45.6792 19.521 45.6792 19.1255V18.957C45.6792 18.5664 45.6304 18.1978 45.5327 17.8511C45.4399 17.4995 45.2983 17.1895 45.1079 16.9209C44.9224 16.6475 44.688 16.4326 44.4048 16.2764C44.1265 16.1201 43.7993 16.042 43.4233 16.042C43.0522 16.042 42.7251 16.1201 42.4419 16.2764C42.1636 16.4326 41.9292 16.6475 41.7388 16.9209C41.5532 17.1895 41.4141 17.4995 41.3213 17.8511C41.2285 18.1978 41.1821 18.5664 41.1821 18.957ZM48.7627 22.2822C48.7627 22.0527 48.8335 21.8599 48.9751 21.7036C49.1216 21.5425 49.3315 21.4619 49.605 21.4619C49.8784 21.4619 50.0859 21.5425 50.2275 21.7036C50.374 21.8599 50.4473 22.0527 50.4473 22.2822C50.4473 22.5068 50.374 22.6973 50.2275 22.8535C50.0859 23.0098 49.8784 23.0879 49.605 23.0879C49.3315 23.0879 49.1216 23.0098 48.9751 22.8535C48.8335 22.6973 48.7627 22.5068 48.7627 22.2822ZM57.3101 20.8979C57.3101 20.7026 57.2661 20.522 57.1782 20.356C57.0952 20.1851 56.9219 20.0312 56.6582 19.8945C56.3994 19.7529 56.0088 19.6309 55.4863 19.5283C55.0469 19.4355 54.6489 19.3257 54.2925 19.1987C53.9409 19.0718 53.6406 18.918 53.3916 18.7373C53.1475 18.5566 52.9595 18.3442 52.8276 18.1001C52.6958 17.856 52.6299 17.5703 52.6299 17.2432C52.6299 16.9307 52.6982 16.6353 52.835 16.3569C52.9766 16.0786 53.1743 15.832 53.4282 15.6172C53.687 15.4023 53.9971 15.2339 54.3584 15.1118C54.7197 14.9897 55.1226 14.9287 55.5669 14.9287C56.2017 14.9287 56.7437 15.041 57.1929 15.2656C57.6421 15.4902 57.9863 15.7905 58.2256 16.1665C58.4648 16.5376 58.5845 16.9502 58.5845 17.4043H57.2295C57.2295 17.1846 57.1636 16.9722 57.0317 16.7671C56.9048 16.5571 56.7168 16.3838 56.4678 16.2471C56.2236 16.1104 55.9233 16.042 55.5669 16.042C55.1909 16.042 54.8857 16.1006 54.6514 16.2178C54.4219 16.3301 54.2534 16.4741 54.146 16.6499C54.0435 16.8257 53.9922 17.0112 53.9922 17.2065C53.9922 17.353 54.0166 17.4849 54.0654 17.6021C54.1191 17.7144 54.2119 17.8193 54.3438 17.917C54.4756 18.0098 54.6611 18.0977 54.9004 18.1807C55.1396 18.2637 55.4448 18.3467 55.8159 18.4297C56.4653 18.5762 57 18.752 57.4199 18.957C57.8398 19.1621 58.1523 19.4136 58.3574 19.7114C58.5625 20.0093 58.665 20.3706 58.665 20.7954C58.665 21.1421 58.5918 21.4595 58.4453 21.7476C58.3037 22.0356 58.0962 22.2847 57.8228 22.4946C57.5542 22.6997 57.2319 22.8608 56.856 22.978C56.4849 23.0903 56.0674 23.1465 55.6035 23.1465C54.9053 23.1465 54.3145 23.022 53.8311 22.7729C53.3477 22.5239 52.9814 22.2017 52.7324 21.8062C52.4834 21.4106 52.3589 20.9932 52.3589 20.5537H53.7212C53.7407 20.9248 53.8481 21.2202 54.0435 21.4399C54.2388 21.6548 54.478 21.8086 54.7612 21.9014C55.0444 21.9893 55.3252 22.0332 55.6035 22.0332C55.9746 22.0332 56.2847 21.9844 56.5337 21.8867C56.7876 21.7891 56.9805 21.6548 57.1123 21.4839C57.2441 21.313 57.3101 21.1177 57.3101 20.8979ZM63.7627 15.0752V16.1152H59.478V15.0752H63.7627ZM60.9282 13.1489H62.2832V21.0371C62.2832 21.3057 62.3247 21.5083 62.4077 21.645C62.4907 21.7817 62.5981 21.8721 62.73 21.916C62.8618 21.96 63.0034 21.9819 63.1548 21.9819C63.2671 21.9819 63.3843 21.9722 63.5063 21.9526C63.6333 21.9282 63.7285 21.9087 63.792 21.894L63.7993 23C63.6919 23.0342 63.5503 23.0659 63.3745 23.0952C63.2036 23.1294 62.9961 23.1465 62.752 23.1465C62.4199 23.1465 62.1147 23.0806 61.8364 22.9487C61.5581 22.8169 61.3359 22.5972 61.1699 22.2896C61.0088 21.9771 60.9282 21.5571 60.9282 21.0298V13.1489ZM68.6406 23.1465C68.0889 23.1465 67.5884 23.0537 67.1392 22.8682C66.6948 22.6777 66.3115 22.4116 65.9893 22.0698C65.6719 21.728 65.4277 21.3228 65.2568 20.854C65.0859 20.3853 65.0005 19.8726 65.0005 19.3159V19.0083C65.0005 18.3638 65.0957 17.79 65.2861 17.2871C65.4766 16.7793 65.7354 16.3496 66.0625 15.998C66.3896 15.6465 66.7607 15.3804 67.1758 15.1997C67.5908 15.019 68.0205 14.9287 68.4648 14.9287C69.0312 14.9287 69.5195 15.0264 69.9297 15.2217C70.3447 15.417 70.6841 15.6904 70.9478 16.042C71.2114 16.3887 71.4067 16.7988 71.5337 17.2725C71.6606 17.7412 71.7241 18.2539 71.7241 18.8105V19.4185H65.8062V18.3125H70.3691V18.21C70.3496 17.8584 70.2764 17.5166 70.1494 17.1846C70.0273 16.8525 69.832 16.5791 69.5635 16.3643C69.2949 16.1494 68.9287 16.042 68.4648 16.042C68.1572 16.042 67.874 16.1079 67.6152 16.2397C67.3564 16.3667 67.1343 16.5571 66.9487 16.811C66.7632 17.0649 66.6191 17.375 66.5166 17.7412C66.4141 18.1074 66.3628 18.5298 66.3628 19.0083V19.3159C66.3628 19.6919 66.4141 20.0459 66.5166 20.3779C66.624 20.7051 66.7778 20.9932 66.978 21.2422C67.1831 21.4912 67.4297 21.6865 67.7178 21.8281C68.0107 21.9697 68.3428 22.0405 68.7139 22.0405C69.1924 22.0405 69.5977 21.9429 69.9297 21.7476C70.2617 21.5522 70.5522 21.291 70.8013 20.9639L71.6216 21.6157C71.4507 21.8745 71.2334 22.1211 70.9697 22.3555C70.7061 22.5898 70.3813 22.7803 69.9956 22.9268C69.6147 23.0732 69.1631 23.1465 68.6406 23.1465ZM74.6611 16.7671V23H73.3062V15.0752H74.5879L74.6611 16.7671ZM74.3389 18.7373L73.7749 18.7153C73.7798 18.1733 73.8604 17.6729 74.0166 17.2139C74.1729 16.75 74.3926 16.3472 74.6758 16.0054C74.959 15.6636 75.2959 15.3999 75.6865 15.2144C76.082 15.0239 76.519 14.9287 76.9976 14.9287C77.3882 14.9287 77.7397 14.9824 78.0522 15.0898C78.3647 15.1924 78.6309 15.3584 78.8506 15.5879C79.0752 15.8174 79.2461 16.1152 79.3633 16.4814C79.4805 16.8428 79.5391 17.2847 79.5391 17.8071V23H78.1768V17.7925C78.1768 17.3774 78.1157 17.0454 77.9937 16.7964C77.8716 16.5425 77.6934 16.3594 77.459 16.2471C77.2246 16.1299 76.9365 16.0713 76.5947 16.0713C76.2578 16.0713 75.9502 16.1421 75.6719 16.2837C75.3984 16.4253 75.1616 16.6206 74.9614 16.8696C74.7661 17.1187 74.6123 17.4043 74.5 17.7266C74.3926 18.0439 74.3389 18.3809 74.3389 18.7373ZM86.27 21.645V17.5654C86.27 17.2529 86.2065 16.9819 86.0796 16.7524C85.9575 16.5181 85.772 16.3374 85.5229 16.2104C85.2739 16.0835 84.9663 16.02 84.6001 16.02C84.2583 16.02 83.958 16.0786 83.6992 16.1958C83.4453 16.313 83.2451 16.4668 83.0986 16.6572C82.957 16.8477 82.8862 17.0527 82.8862 17.2725H81.5312C81.5312 16.9893 81.6045 16.7085 81.751 16.4302C81.8975 16.1519 82.1074 15.9004 82.3809 15.6758C82.6592 15.4463 82.9912 15.2656 83.377 15.1338C83.7676 14.9971 84.2021 14.9287 84.6807 14.9287C85.2568 14.9287 85.7646 15.0264 86.2041 15.2217C86.6484 15.417 86.9951 15.7124 87.2441 16.1079C87.498 16.4985 87.625 16.9893 87.625 17.5801V21.2715C87.625 21.5352 87.647 21.8159 87.6909 22.1138C87.7397 22.4116 87.8105 22.668 87.9033 22.8828V23H86.4897C86.4214 22.8438 86.3677 22.6362 86.3286 22.3774C86.2896 22.1138 86.27 21.8696 86.27 21.645ZM86.5044 18.1953L86.519 19.1475H85.1494C84.7637 19.1475 84.4194 19.1792 84.1167 19.2427C83.814 19.3013 83.5601 19.3916 83.355 19.5137C83.1499 19.6357 82.9937 19.7896 82.8862 19.9751C82.7788 20.1558 82.7251 20.3682 82.7251 20.6123C82.7251 20.8613 82.7812 21.0884 82.8936 21.2935C83.0059 21.4985 83.1743 21.6621 83.3989 21.7842C83.6284 21.9014 83.9092 21.96 84.2412 21.96C84.6562 21.96 85.0225 21.8721 85.3398 21.6963C85.6572 21.5205 85.9087 21.3057 86.0942 21.0518C86.2847 20.7979 86.3872 20.5513 86.4019 20.312L86.9805 20.9639C86.9463 21.1689 86.8535 21.396 86.7021 21.645C86.5508 21.894 86.3481 22.1333 86.0942 22.3628C85.8452 22.5874 85.5474 22.7754 85.2007 22.9268C84.8589 23.0732 84.4731 23.1465 84.0435 23.1465C83.5063 23.1465 83.0352 23.0415 82.6299 22.8315C82.2295 22.6216 81.917 22.3408 81.6924 21.9893C81.4727 21.6328 81.3628 21.2349 81.3628 20.7954C81.3628 20.3706 81.4458 19.9971 81.6118 19.6748C81.7778 19.3477 82.0171 19.0767 82.3296 18.8618C82.6421 18.6421 83.0181 18.4761 83.4575 18.3638C83.897 18.2515 84.3877 18.1953 84.9297 18.1953H86.5044ZM94.063 12.2773V23H92.708V13.9692L89.9761 14.9653V13.7422L93.8506 12.2773H94.063ZM104.771 20.1143C104.771 20.7637 104.62 21.3154 104.317 21.7695C104.019 22.2188 103.614 22.5605 103.101 22.7949C102.593 23.0293 102.02 23.1465 101.38 23.1465C100.74 23.1465 100.164 23.0293 99.6514 22.7949C99.1387 22.5605 98.7334 22.2188 98.4355 21.7695C98.1377 21.3154 97.9888 20.7637 97.9888 20.1143C97.9888 19.6895 98.0693 19.3013 98.2305 18.9497C98.3965 18.5933 98.6284 18.2832 98.9263 18.0195C99.229 17.7559 99.5854 17.5532 99.9956 17.4116C100.411 17.2651 100.867 17.1919 101.365 17.1919C102.02 17.1919 102.603 17.3188 103.116 17.5728C103.628 17.8218 104.031 18.166 104.324 18.6055C104.622 19.0449 104.771 19.5479 104.771 20.1143ZM103.409 20.085C103.409 19.6895 103.323 19.3403 103.152 19.0376C102.981 18.73 102.742 18.4907 102.435 18.3198C102.127 18.1489 101.771 18.0635 101.365 18.0635C100.95 18.0635 100.591 18.1489 100.289 18.3198C99.9907 18.4907 99.7588 18.73 99.5928 19.0376C99.4268 19.3403 99.3438 19.6895 99.3438 20.085C99.3438 20.4951 99.4243 20.8467 99.5854 21.1396C99.7515 21.4277 99.9858 21.6499 100.289 21.8062C100.596 21.9575 100.96 22.0332 101.38 22.0332C101.8 22.0332 102.161 21.9575 102.464 21.8062C102.767 21.6499 102.999 21.4277 103.16 21.1396C103.326 20.8467 103.409 20.4951 103.409 20.085ZM104.522 15.1118C104.522 15.6294 104.385 16.0957 104.112 16.5107C103.838 16.9258 103.465 17.2529 102.991 17.4922C102.518 17.7314 101.98 17.8511 101.38 17.8511C100.77 17.8511 100.225 17.7314 99.7466 17.4922C99.2729 17.2529 98.9019 16.9258 98.6333 16.5107C98.3647 16.0957 98.2305 15.6294 98.2305 15.1118C98.2305 14.4917 98.3647 13.9644 98.6333 13.5298C98.9067 13.0952 99.2803 12.7632 99.7539 12.5337C100.228 12.3042 100.767 12.1895 101.373 12.1895C101.983 12.1895 102.525 12.3042 102.999 12.5337C103.472 12.7632 103.843 13.0952 104.112 13.5298C104.385 13.9644 104.522 14.4917 104.522 15.1118ZM103.167 15.1338C103.167 14.7773 103.091 14.4624 102.94 14.189C102.789 13.9155 102.579 13.7007 102.31 13.5444C102.042 13.3833 101.729 13.3027 101.373 13.3027C101.016 13.3027 100.704 13.3784 100.435 13.5298C100.171 13.6763 99.9639 13.8862 99.8125 14.1597C99.666 14.4331 99.5928 14.7578 99.5928 15.1338C99.5928 15.5 99.666 15.8198 99.8125 16.0933C99.9639 16.3667 100.174 16.5791 100.442 16.7305C100.711 16.8818 101.023 16.9575 101.38 16.9575C101.736 16.9575 102.046 16.8818 102.31 16.7305C102.579 16.5791 102.789 16.3667 102.94 16.0933C103.091 15.8198 103.167 15.5 103.167 15.1338ZM118.313 19.3159C118.294 19.7651 118.226 20.2168 118.108 20.6709C117.991 21.1201 117.815 21.5327 117.581 21.9087C117.347 22.2847 117.042 22.5874 116.666 22.8169C116.294 23.0415 115.845 23.1538 115.318 23.1538C114.981 23.1538 114.686 23.0952 114.432 22.978C114.183 22.856 113.978 22.6826 113.816 22.458C113.66 22.2334 113.55 21.9624 113.487 21.645C113.428 21.3276 113.418 20.9736 113.458 20.583L113.831 16.5254H114.908L114.534 20.583C114.505 20.9395 114.512 21.23 114.556 21.4546C114.605 21.6792 114.678 21.8525 114.776 21.9746C114.874 22.0918 114.983 22.1724 115.105 22.2163C115.232 22.2603 115.354 22.2822 115.472 22.2822C115.765 22.2822 116.026 22.2065 116.255 22.0552C116.485 21.8989 116.678 21.6865 116.834 21.418C116.995 21.1445 117.12 20.8296 117.208 20.4731C117.295 20.1118 117.349 19.7261 117.369 19.3159C117.403 18.5884 117.369 17.9194 117.266 17.3091C117.168 16.6987 117 16.1567 116.761 15.6831C116.526 15.2095 116.219 14.8091 115.838 14.4819C115.457 14.1548 115.003 13.9058 114.476 13.7349C113.948 13.564 113.345 13.4785 112.667 13.4785C112.051 13.4785 111.482 13.5737 110.96 13.7642C110.442 13.9497 109.976 14.2183 109.561 14.5698C109.151 14.9214 108.797 15.3438 108.499 15.8369C108.206 16.3301 107.974 16.8867 107.803 17.5068C107.637 18.1221 107.54 18.7861 107.51 19.499C107.476 20.2314 107.515 20.9053 107.627 21.5205C107.74 22.1309 107.92 22.6753 108.169 23.1538C108.423 23.6372 108.743 24.0449 109.129 24.377C109.515 24.7139 109.961 24.9678 110.469 25.1387C110.977 25.3145 111.543 25.4023 112.168 25.4023C112.598 25.4023 113.033 25.3511 113.472 25.2485C113.917 25.146 114.288 25.0068 114.585 24.8311L114.864 25.666C114.522 25.8857 114.095 26.0493 113.582 26.1567C113.074 26.2642 112.593 26.3179 112.139 26.3179C111.397 26.3179 110.718 26.2153 110.103 26.0103C109.493 25.8101 108.951 25.5146 108.477 25.124C108.008 24.7383 107.618 24.2671 107.305 23.7104C106.993 23.1587 106.763 22.5288 106.617 21.8208C106.47 21.1128 106.414 20.3389 106.448 19.499C106.482 18.6982 106.602 17.9438 106.807 17.2358C107.017 16.5278 107.303 15.8857 107.664 15.3096C108.025 14.7334 108.455 14.2378 108.953 13.8228C109.456 13.4028 110.02 13.0806 110.645 12.856C111.275 12.6313 111.958 12.519 112.696 12.519C113.448 12.519 114.129 12.6216 114.739 12.8267C115.35 13.0317 115.884 13.3271 116.343 13.7129C116.807 14.0986 117.19 14.5698 117.493 15.1265C117.796 15.6831 118.016 16.313 118.152 17.0161C118.294 17.7192 118.348 18.4858 118.313 19.3159ZM110.792 19.9385C110.757 20.2803 110.757 20.5854 110.792 20.854C110.826 21.1226 110.892 21.3496 110.989 21.5352C111.087 21.7207 111.214 21.8623 111.37 21.96C111.531 22.0527 111.719 22.0991 111.934 22.0991C112.076 22.0991 112.225 22.0649 112.381 21.9966C112.537 21.9233 112.691 21.811 112.842 21.6597C112.994 21.5083 113.135 21.3105 113.267 21.0664C113.399 20.8223 113.509 20.5293 113.597 20.1875L114.08 20.7148C113.968 21.1152 113.821 21.4668 113.641 21.7695C113.465 22.0723 113.267 22.3262 113.047 22.5312C112.828 22.7363 112.593 22.8926 112.344 23C112.1 23.1025 111.851 23.1538 111.597 23.1538C111.241 23.1538 110.928 23.0781 110.66 22.9268C110.391 22.7705 110.174 22.5508 110.008 22.2676C109.842 21.9844 109.725 21.6475 109.656 21.2568C109.593 20.8613 109.583 20.4219 109.627 19.9385C109.671 19.4258 109.761 18.9521 109.898 18.5176C110.035 18.083 110.203 17.6948 110.403 17.353C110.608 17.0112 110.838 16.7207 111.092 16.4814C111.351 16.2422 111.624 16.0615 111.912 15.9395C112.2 15.8125 112.496 15.749 112.798 15.749C113.326 15.749 113.741 15.8271 114.043 15.9834C114.346 16.1348 114.634 16.3154 114.908 16.5254L114.285 17.2505C114.144 17.1138 113.958 16.9868 113.729 16.8696C113.499 16.7524 113.228 16.6938 112.916 16.6938C112.647 16.6938 112.396 16.7622 112.161 16.8989C111.927 17.0356 111.714 17.2407 111.524 17.5142C111.338 17.7876 111.182 18.127 111.055 18.5322C110.928 18.9326 110.84 19.4014 110.792 19.9385ZM121.456 16.6499V23H120.093V15.0752H121.382L121.456 16.6499ZM121.177 18.7373L120.547 18.7153C120.552 18.1733 120.623 17.6729 120.76 17.2139C120.896 16.75 121.099 16.3472 121.368 16.0054C121.636 15.6636 121.971 15.3999 122.371 15.2144C122.771 15.0239 123.235 14.9287 123.763 14.9287C124.134 14.9287 124.476 14.9824 124.788 15.0898C125.101 15.1924 125.372 15.356 125.601 15.5806C125.831 15.8052 126.009 16.0933 126.136 16.4448C126.263 16.7964 126.326 17.2212 126.326 17.7192V23H124.971V17.7852C124.971 17.3701 124.9 17.0381 124.759 16.7891C124.622 16.54 124.427 16.3594 124.173 16.2471C123.919 16.1299 123.621 16.0713 123.279 16.0713C122.879 16.0713 122.544 16.1421 122.276 16.2837C122.007 16.4253 121.792 16.6206 121.631 16.8696C121.47 17.1187 121.353 17.4043 121.28 17.7266C121.211 18.0439 121.177 18.3809 121.177 18.7373ZM126.312 17.9902L125.403 18.2686C125.408 17.834 125.479 17.4165 125.616 17.0161C125.757 16.6157 125.96 16.2593 126.224 15.9468C126.492 15.6343 126.822 15.3877 127.212 15.207C127.603 15.0215 128.05 14.9287 128.553 14.9287C128.978 14.9287 129.354 14.9849 129.681 15.0972C130.013 15.2095 130.291 15.3828 130.516 15.6172C130.745 15.8467 130.918 16.1421 131.036 16.5034C131.153 16.8647 131.211 17.2944 131.211 17.7925V23H129.849V17.7778C129.849 17.3335 129.778 16.9893 129.637 16.7451C129.5 16.4961 129.305 16.3228 129.051 16.2251C128.802 16.1226 128.504 16.0713 128.157 16.0713C127.859 16.0713 127.596 16.1226 127.366 16.2251C127.137 16.3276 126.944 16.4692 126.788 16.6499C126.631 16.8257 126.512 17.0283 126.429 17.2578C126.351 17.4873 126.312 17.7314 126.312 17.9902ZM137.935 21.645V17.5654C137.935 17.2529 137.872 16.9819 137.745 16.7524C137.623 16.5181 137.437 16.3374 137.188 16.2104C136.939 16.0835 136.631 16.02 136.265 16.02C135.923 16.02 135.623 16.0786 135.364 16.1958C135.11 16.313 134.91 16.4668 134.764 16.6572C134.622 16.8477 134.551 17.0527 134.551 17.2725H133.196C133.196 16.9893 133.27 16.7085 133.416 16.4302C133.562 16.1519 133.772 15.9004 134.046 15.6758C134.324 15.4463 134.656 15.2656 135.042 15.1338C135.433 14.9971 135.867 14.9287 136.346 14.9287C136.922 14.9287 137.43 15.0264 137.869 15.2217C138.313 15.417 138.66 15.7124 138.909 16.1079C139.163 16.4985 139.29 16.9893 139.29 17.5801V21.2715C139.29 21.5352 139.312 21.8159 139.356 22.1138C139.405 22.4116 139.476 22.668 139.568 22.8828V23H138.155C138.086 22.8438 138.033 22.6362 137.994 22.3774C137.955 22.1138 137.935 21.8696 137.935 21.645ZM138.169 18.1953L138.184 19.1475H136.814C136.429 19.1475 136.084 19.1792 135.782 19.2427C135.479 19.3013 135.225 19.3916 135.02 19.5137C134.815 19.6357 134.659 19.7896 134.551 19.9751C134.444 20.1558 134.39 20.3682 134.39 20.6123C134.39 20.8613 134.446 21.0884 134.559 21.2935C134.671 21.4985 134.839 21.6621 135.064 21.7842C135.293 21.9014 135.574 21.96 135.906 21.96C136.321 21.96 136.688 21.8721 137.005 21.6963C137.322 21.5205 137.574 21.3057 137.759 21.0518C137.95 20.7979 138.052 20.5513 138.067 20.312L138.646 20.9639C138.611 21.1689 138.519 21.396 138.367 21.645C138.216 21.894 138.013 22.1333 137.759 22.3628C137.51 22.5874 137.212 22.7754 136.866 22.9268C136.524 23.0732 136.138 23.1465 135.708 23.1465C135.171 23.1465 134.7 23.0415 134.295 22.8315C133.895 22.6216 133.582 22.3408 133.357 21.9893C133.138 21.6328 133.028 21.2349 133.028 20.7954C133.028 20.3706 133.111 19.9971 133.277 19.6748C133.443 19.3477 133.682 19.0767 133.995 18.8618C134.307 18.6421 134.683 18.4761 135.123 18.3638C135.562 18.2515 136.053 18.1953 136.595 18.1953H138.169ZM142.894 15.0752V23H141.531V15.0752H142.894ZM141.429 12.9731C141.429 12.7534 141.495 12.5679 141.626 12.4165C141.763 12.2651 141.963 12.1895 142.227 12.1895C142.486 12.1895 142.684 12.2651 142.82 12.4165C142.962 12.5679 143.033 12.7534 143.033 12.9731C143.033 13.1831 142.962 13.3638 142.82 13.5151C142.684 13.6616 142.486 13.7349 142.227 13.7349C141.963 13.7349 141.763 13.6616 141.626 13.5151C141.495 13.3638 141.429 13.1831 141.429 12.9731ZM146.541 11.75V23H145.179V11.75H146.541ZM148.738 22.2822C148.738 22.0527 148.809 21.8599 148.951 21.7036C149.097 21.5425 149.307 21.4619 149.581 21.4619C149.854 21.4619 150.062 21.5425 150.203 21.7036C150.35 21.8599 150.423 22.0527 150.423 22.2822C150.423 22.5068 150.35 22.6973 150.203 22.8535C150.062 23.0098 149.854 23.0879 149.581 23.0879C149.307 23.0879 149.097 23.0098 148.951 22.8535C148.809 22.6973 148.738 22.5068 148.738 22.2822ZM154.026 16.3203V23H152.671V15.0752H153.99L154.026 16.3203ZM156.502 15.0312L156.495 16.291C156.382 16.2666 156.275 16.252 156.172 16.2471C156.075 16.2373 155.962 16.2324 155.835 16.2324C155.523 16.2324 155.247 16.2812 155.008 16.3789C154.769 16.4766 154.566 16.6133 154.4 16.7891C154.234 16.9648 154.102 17.1748 154.004 17.4189C153.912 17.6582 153.851 17.9219 153.821 18.21L153.44 18.4297C153.44 17.9512 153.487 17.502 153.58 17.082C153.677 16.6621 153.826 16.291 154.026 15.9688C154.227 15.6416 154.48 15.3877 154.788 15.207C155.101 15.0215 155.472 14.9287 155.901 14.9287C155.999 14.9287 156.111 14.9409 156.238 14.9653C156.365 14.9849 156.453 15.0068 156.502 15.0312ZM162.603 21.1689V15.0752H163.965V23H162.669L162.603 21.1689ZM162.859 19.499L163.423 19.4844C163.423 20.0117 163.367 20.5 163.255 20.9492C163.147 21.3936 162.972 21.7793 162.728 22.1064C162.483 22.4336 162.164 22.6899 161.768 22.8755C161.373 23.0562 160.892 23.1465 160.325 23.1465C159.939 23.1465 159.585 23.0903 159.263 22.978C158.946 22.8657 158.672 22.6924 158.443 22.458C158.213 22.2236 158.035 21.9185 157.908 21.5425C157.786 21.1665 157.725 20.7148 157.725 20.1875V15.0752H159.08V20.2021C159.08 20.5586 159.119 20.854 159.197 21.0884C159.28 21.3179 159.39 21.501 159.527 21.6377C159.668 21.7695 159.825 21.8623 159.996 21.916C160.171 21.9697 160.352 21.9966 160.538 21.9966C161.114 21.9966 161.57 21.8867 161.907 21.667C162.244 21.4424 162.486 21.1421 162.632 20.7661C162.784 20.3853 162.859 19.9629 162.859 19.499Z" fill="#044A9B"/>
</svg>
