<svg width="219" height="36" viewBox="0 0 219 36" fill="none" xmlns="http://www.w3.org/2000/svg">
<rect x="0.8125" y="1.10742" width="217.688" height="33.5789" rx="4.5" fill="white" stroke="#044A9B"/>
<path d="M33.4258 16.4292V17.7036H26.1162V16.4292H33.4258ZM30.4521 13.3164V21.0801H29.0972V13.3164H30.4521ZM41.834 11.4854V12.2471L37.4175 22.1494H35.9893L40.3984 12.5986H34.627V11.4854H41.834ZM47.1953 17.8867V17.8135C47.1953 16.749 47.3149 15.7871 47.5542 14.9277C47.7935 14.0635 48.0986 13.3066 48.4697 12.6572C48.8408 12.0078 49.2314 11.4707 49.6416 11.0459C50.0518 10.6162 50.4302 10.3062 50.7769 10.1157L51.0625 11.0093C50.7744 11.229 50.4814 11.5317 50.1836 11.9175C49.8906 12.3032 49.6196 12.7769 49.3706 13.3384C49.1265 13.8999 48.9287 14.5518 48.7773 15.2939C48.626 16.0361 48.5503 16.8711 48.5503 17.7988V17.9014C48.5503 18.8291 48.626 19.6665 48.7773 20.4136C48.9287 21.1558 49.1265 21.8101 49.3706 22.3765C49.6196 22.9429 49.8906 23.4238 50.1836 23.8193C50.4814 24.2197 50.7744 24.5371 51.0625 24.7715L50.7769 25.5918C50.4302 25.4014 50.0518 25.0913 49.6416 24.6616C49.2314 24.2368 48.8408 23.6997 48.4697 23.0503C48.0986 22.4058 47.7935 21.6514 47.5542 20.7871C47.3149 19.9229 47.1953 18.9561 47.1953 17.8867ZM54.2192 16.1509H55.186C55.6597 16.1509 56.0503 16.0728 56.3579 15.9165C56.6704 15.7554 56.9023 15.5381 57.0537 15.2646C57.21 14.9863 57.2881 14.6738 57.2881 14.3271C57.2881 13.917 57.2197 13.5728 57.083 13.2944C56.9463 13.0161 56.7412 12.8062 56.4678 12.6646C56.1943 12.5229 55.8477 12.4521 55.4277 12.4521C55.0469 12.4521 54.71 12.5278 54.417 12.6792C54.1289 12.8257 53.9019 13.0356 53.7358 13.3091C53.5747 13.5825 53.4941 13.9048 53.4941 14.2759H52.1392C52.1392 13.7339 52.2759 13.2407 52.5493 12.7964C52.8228 12.3521 53.2061 11.998 53.6992 11.7344C54.1973 11.4707 54.7734 11.3389 55.4277 11.3389C56.0723 11.3389 56.6362 11.4536 57.1196 11.6831C57.603 11.9077 57.979 12.2446 58.2476 12.6938C58.5161 13.1382 58.6504 13.6924 58.6504 14.3564C58.6504 14.625 58.5869 14.9131 58.46 15.2207C58.3379 15.5234 58.145 15.8066 57.8813 16.0703C57.6226 16.334 57.2856 16.5513 56.8706 16.7222C56.4556 16.8882 55.9575 16.9712 55.3765 16.9712H54.2192V16.1509ZM54.2192 17.2642V16.4512H55.3765C56.0552 16.4512 56.6167 16.5317 57.061 16.6929C57.5054 16.854 57.8545 17.0688 58.1084 17.3374C58.3672 17.606 58.5479 17.9014 58.6504 18.2236C58.7578 18.541 58.8115 18.8584 58.8115 19.1758C58.8115 19.6738 58.7261 20.1157 58.5552 20.5015C58.3892 20.8872 58.1523 21.2144 57.8447 21.4829C57.542 21.7515 57.1855 21.9541 56.7754 22.0908C56.3652 22.2275 55.9185 22.2959 55.4351 22.2959C54.9712 22.2959 54.5342 22.23 54.124 22.0981C53.7188 21.9663 53.3599 21.7759 53.0474 21.5269C52.7349 21.2729 52.4907 20.9629 52.3149 20.5967C52.1392 20.2256 52.0513 19.8032 52.0513 19.3296H53.4062C53.4062 19.7007 53.4868 20.0254 53.6479 20.3037C53.814 20.582 54.0483 20.7993 54.3511 20.9556C54.6587 21.1069 55.02 21.1826 55.4351 21.1826C55.8501 21.1826 56.2065 21.1118 56.5044 20.9702C56.8071 20.8237 57.0391 20.604 57.2002 20.311C57.3662 20.0181 57.4492 19.6494 57.4492 19.2051C57.4492 18.7607 57.3564 18.397 57.1709 18.1138C56.9854 17.8257 56.7217 17.6133 56.3799 17.4766C56.043 17.335 55.645 17.2642 55.186 17.2642H54.2192ZM67.8862 18.5605V19.6738H60.1812V18.8755L64.9565 11.4854H66.0625L64.876 13.624L61.7192 18.5605H67.8862ZM66.3994 11.4854V22.1494H65.0444V11.4854H66.3994ZM73.5698 11.4268V22.1494H72.2148V13.1187L69.4829 14.1147V12.8916L73.3574 11.4268H73.5698ZM84.5415 21.0361V22.1494H77.5615V21.1753L81.0552 17.2861C81.4849 16.8076 81.8169 16.4023 82.0513 16.0703C82.2905 15.7334 82.4565 15.4331 82.5493 15.1694C82.647 14.9009 82.6958 14.6274 82.6958 14.3491C82.6958 13.9976 82.6226 13.6802 82.4761 13.397C82.3345 13.1089 82.1245 12.8794 81.8462 12.7085C81.5679 12.5376 81.231 12.4521 80.8354 12.4521C80.3618 12.4521 79.9663 12.5449 79.6489 12.7305C79.3364 12.9111 79.1021 13.165 78.9458 13.4922C78.7896 13.8193 78.7114 14.1953 78.7114 14.6201H77.3564C77.3564 14.0195 77.4883 13.4702 77.752 12.9722C78.0156 12.4741 78.4062 12.0786 78.9238 11.7856C79.4414 11.4878 80.0786 11.3389 80.8354 11.3389C81.5093 11.3389 82.0854 11.4585 82.564 11.6978C83.0425 11.9321 83.4087 12.2642 83.6626 12.6938C83.9214 13.1187 84.0508 13.6167 84.0508 14.188C84.0508 14.5005 83.9971 14.8179 83.8896 15.1401C83.7871 15.4575 83.6431 15.7749 83.4575 16.0923C83.2769 16.4097 83.0645 16.7222 82.8203 17.0298C82.5811 17.3374 82.3247 17.6401 82.0513 17.938L79.1948 21.0361H84.5415ZM89.2583 17.8135V17.8867C89.2583 18.9561 89.1387 19.9229 88.8994 20.7871C88.6602 21.6514 88.355 22.4058 87.9839 23.0503C87.6128 23.6997 87.2222 24.2368 86.812 24.6616C86.4019 25.0913 86.0234 25.4014 85.6768 25.5918L85.3911 24.7715C85.6792 24.5518 85.9697 24.2441 86.2627 23.8486C86.5557 23.458 86.8267 22.9746 87.0757 22.3984C87.3247 21.8271 87.5249 21.168 87.6763 20.4209C87.8276 19.6689 87.9033 18.8291 87.9033 17.9014V17.7988C87.9033 16.8711 87.8228 16.0337 87.6616 15.2866C87.5005 14.5347 87.2905 13.873 87.0317 13.3018C86.7778 12.7305 86.5044 12.2495 86.2114 11.8589C85.9233 11.4634 85.6499 11.1582 85.3911 10.9434L85.6768 10.1157C86.0234 10.3062 86.4019 10.6162 86.812 11.0459C87.2222 11.4707 87.6128 12.0078 87.9839 12.6572C88.355 13.3066 88.6602 14.0635 88.8994 14.9277C89.1387 15.7871 89.2583 16.749 89.2583 17.8135ZM102.149 18.5605V19.6738H94.4438V18.8755L99.2192 11.4854H100.325L99.1387 13.624L95.9819 18.5605H102.149ZM100.662 11.4854V22.1494H99.3071V11.4854H100.662ZM105.357 16.1509H106.324C106.797 16.1509 107.188 16.0728 107.496 15.9165C107.808 15.7554 108.04 15.5381 108.191 15.2646C108.348 14.9863 108.426 14.6738 108.426 14.3271C108.426 13.917 108.357 13.5728 108.221 13.2944C108.084 13.0161 107.879 12.8062 107.605 12.6646C107.332 12.5229 106.985 12.4521 106.565 12.4521C106.185 12.4521 105.848 12.5278 105.555 12.6792C105.267 12.8257 105.04 13.0356 104.874 13.3091C104.712 13.5825 104.632 13.9048 104.632 14.2759H103.277C103.277 13.7339 103.414 13.2407 103.687 12.7964C103.96 12.3521 104.344 11.998 104.837 11.7344C105.335 11.4707 105.911 11.3389 106.565 11.3389C107.21 11.3389 107.774 11.4536 108.257 11.6831C108.741 11.9077 109.117 12.2446 109.385 12.6938C109.654 13.1382 109.788 13.6924 109.788 14.3564C109.788 14.625 109.725 14.9131 109.598 15.2207C109.476 15.5234 109.283 15.8066 109.019 16.0703C108.76 16.334 108.423 16.5513 108.008 16.7222C107.593 16.8882 107.095 16.9712 106.514 16.9712H105.357V16.1509ZM105.357 17.2642V16.4512H106.514C107.193 16.4512 107.754 16.5317 108.199 16.6929C108.643 16.854 108.992 17.0688 109.246 17.3374C109.505 17.606 109.686 17.9014 109.788 18.2236C109.896 18.541 109.949 18.8584 109.949 19.1758C109.949 19.6738 109.864 20.1157 109.693 20.5015C109.527 20.8872 109.29 21.2144 108.982 21.4829C108.68 21.7515 108.323 21.9541 107.913 22.0908C107.503 22.2275 107.056 22.2959 106.573 22.2959C106.109 22.2959 105.672 22.23 105.262 22.0981C104.856 21.9663 104.498 21.7759 104.185 21.5269C103.873 21.2729 103.628 20.9629 103.453 20.5967C103.277 20.2256 103.189 19.8032 103.189 19.3296H104.544C104.544 19.7007 104.625 20.0254 104.786 20.3037C104.952 20.582 105.186 20.7993 105.489 20.9556C105.796 21.1069 106.158 21.1826 106.573 21.1826C106.988 21.1826 107.344 21.1118 107.642 20.9702C107.945 20.8237 108.177 20.604 108.338 20.311C108.504 20.0181 108.587 19.6494 108.587 19.2051C108.587 18.7607 108.494 18.397 108.309 18.1138C108.123 17.8257 107.859 17.6133 107.518 17.4766C107.181 17.335 106.783 17.2642 106.324 17.2642H105.357ZM114.783 17.0591V18.1724H111.209V17.0591H114.783ZM117.31 21.0142H117.449C118.23 21.0142 118.865 20.9043 119.354 20.6846C119.842 20.4648 120.218 20.1694 120.481 19.7983C120.745 19.4272 120.926 19.0098 121.023 18.5459C121.121 18.0771 121.17 17.5962 121.17 17.103V15.4697C121.17 14.9863 121.114 14.5566 121.001 14.1807C120.894 13.8047 120.743 13.4897 120.547 13.2358C120.357 12.9819 120.14 12.7891 119.896 12.6572C119.651 12.5254 119.393 12.4595 119.119 12.4595C118.807 12.4595 118.526 12.5229 118.277 12.6499C118.033 12.772 117.825 12.9453 117.654 13.1699C117.488 13.3945 117.361 13.6582 117.273 13.9609C117.186 14.2637 117.142 14.5933 117.142 14.9497C117.142 15.2671 117.181 15.5747 117.259 15.8726C117.337 16.1704 117.457 16.439 117.618 16.6782C117.779 16.9175 117.979 17.1079 118.218 17.2495C118.462 17.3862 118.748 17.4546 119.075 17.4546C119.378 17.4546 119.661 17.396 119.925 17.2788C120.193 17.1567 120.43 16.9932 120.635 16.7881C120.845 16.5781 121.011 16.3413 121.133 16.0776C121.26 15.814 121.333 15.5381 121.353 15.25H121.998C121.998 15.6553 121.917 16.0557 121.756 16.4512C121.6 16.8418 121.38 17.1982 121.097 17.5205C120.813 17.8428 120.481 18.1016 120.101 18.2969C119.72 18.4873 119.305 18.5825 118.855 18.5825C118.328 18.5825 117.872 18.48 117.486 18.2749C117.1 18.0698 116.783 17.7964 116.534 17.4546C116.29 17.1128 116.106 16.7319 115.984 16.312C115.867 15.8872 115.809 15.4575 115.809 15.0229C115.809 14.5151 115.879 14.0391 116.021 13.5947C116.163 13.1504 116.373 12.7598 116.651 12.4229C116.929 12.0811 117.273 11.8149 117.684 11.6245C118.099 11.4341 118.577 11.3389 119.119 11.3389C119.729 11.3389 120.25 11.4609 120.679 11.7051C121.109 11.9492 121.458 12.2764 121.727 12.6865C122 13.0967 122.2 13.5581 122.327 14.0708C122.454 14.5835 122.518 15.1108 122.518 15.6528V16.1436C122.518 16.6953 122.481 17.2568 122.408 17.8281C122.339 18.3945 122.205 18.9365 122.005 19.4541C121.81 19.9717 121.524 20.4355 121.148 20.8457C120.772 21.251 120.281 21.5732 119.676 21.8125C119.075 22.0469 118.333 22.1641 117.449 22.1641H117.31V21.0142ZM131.292 11.4854V12.2471L126.875 22.1494H125.447L129.856 12.5986H124.085V11.4854H131.292ZM135.804 17.0591V18.1724H132.229V17.0591H135.804ZM143.677 15.9678V17.5938C143.677 18.4678 143.599 19.2051 143.443 19.8057C143.287 20.4062 143.062 20.8896 142.769 21.2559C142.476 21.6221 142.122 21.8882 141.707 22.0542C141.297 22.2153 140.833 22.2959 140.315 22.2959C139.905 22.2959 139.527 22.2446 139.18 22.1421C138.833 22.0396 138.521 21.876 138.243 21.6514C137.969 21.4219 137.735 21.124 137.54 20.7578C137.344 20.3916 137.195 19.9473 137.093 19.4248C136.99 18.9023 136.939 18.292 136.939 17.5938V15.9678C136.939 15.0938 137.017 14.3613 137.173 13.7705C137.334 13.1797 137.562 12.7061 137.854 12.3496C138.147 11.9883 138.499 11.7295 138.909 11.5732C139.324 11.417 139.788 11.3389 140.301 11.3389C140.716 11.3389 141.097 11.3901 141.443 11.4927C141.795 11.5903 142.107 11.749 142.381 11.9688C142.654 12.1836 142.886 12.4717 143.077 12.833C143.272 13.1895 143.421 13.6265 143.523 14.144C143.626 14.6616 143.677 15.2695 143.677 15.9678ZM142.315 17.8135V15.7407C142.315 15.2622 142.286 14.8423 142.227 14.481C142.173 14.1147 142.093 13.8022 141.985 13.5435C141.878 13.2847 141.741 13.0747 141.575 12.9136C141.414 12.7524 141.226 12.6353 141.011 12.562C140.801 12.4839 140.564 12.4448 140.301 12.4448C139.979 12.4448 139.693 12.5059 139.444 12.6279C139.195 12.7451 138.985 12.9331 138.814 13.1919C138.648 13.4507 138.521 13.79 138.433 14.21C138.345 14.6299 138.301 15.1401 138.301 15.7407V17.8135C138.301 18.292 138.328 18.7144 138.382 19.0806C138.44 19.4468 138.526 19.7642 138.638 20.0327C138.75 20.2964 138.887 20.5137 139.048 20.6846C139.209 20.8555 139.395 20.9824 139.605 21.0654C139.82 21.1436 140.057 21.1826 140.315 21.1826C140.647 21.1826 140.938 21.1191 141.187 20.9922C141.436 20.8652 141.644 20.6675 141.81 20.3989C141.98 20.1255 142.107 19.7764 142.19 19.3516C142.273 18.9219 142.315 18.4092 142.315 17.8135ZM152.115 15.9678V17.5938C152.115 18.4678 152.037 19.2051 151.88 19.8057C151.724 20.4062 151.5 20.8896 151.207 21.2559C150.914 21.6221 150.56 21.8882 150.145 22.0542C149.734 22.2153 149.271 22.2959 148.753 22.2959C148.343 22.2959 147.964 22.2446 147.618 22.1421C147.271 22.0396 146.958 21.876 146.68 21.6514C146.407 21.4219 146.172 21.124 145.977 20.7578C145.782 20.3916 145.633 19.9473 145.53 19.4248C145.428 18.9023 145.376 18.292 145.376 17.5938V15.9678C145.376 15.0938 145.455 14.3613 145.611 13.7705C145.772 13.1797 145.999 12.7061 146.292 12.3496C146.585 11.9883 146.937 11.7295 147.347 11.5732C147.762 11.417 148.226 11.3389 148.738 11.3389C149.153 11.3389 149.534 11.3901 149.881 11.4927C150.232 11.5903 150.545 11.749 150.818 11.9688C151.092 12.1836 151.324 12.4717 151.514 12.833C151.709 13.1895 151.858 13.6265 151.961 14.144C152.063 14.6616 152.115 15.2695 152.115 15.9678ZM150.752 17.8135V15.7407C150.752 15.2622 150.723 14.8423 150.665 14.481C150.611 14.1147 150.53 13.8022 150.423 13.5435C150.315 13.2847 150.179 13.0747 150.013 12.9136C149.852 12.7524 149.664 12.6353 149.449 12.562C149.239 12.4839 149.002 12.4448 148.738 12.4448C148.416 12.4448 148.13 12.5059 147.881 12.6279C147.632 12.7451 147.422 12.9331 147.251 13.1919C147.085 13.4507 146.958 13.79 146.871 14.21C146.783 14.6299 146.739 15.1401 146.739 15.7407V17.8135C146.739 18.292 146.766 18.7144 146.819 19.0806C146.878 19.4468 146.963 19.7642 147.076 20.0327C147.188 20.2964 147.325 20.5137 147.486 20.6846C147.647 20.8555 147.833 20.9824 148.042 21.0654C148.257 21.1436 148.494 21.1826 148.753 21.1826C149.085 21.1826 149.375 21.1191 149.625 20.9922C149.874 20.8652 150.081 20.6675 150.247 20.3989C150.418 20.1255 150.545 19.7764 150.628 19.3516C150.711 18.9219 150.752 18.4092 150.752 17.8135Z" fill="#044A9B"/>
<path d="M194.033 14.1134L190.901 8.63184C188.943 8.8276 188.16 11.5684 188.16 12.5472C188.16 14.1134 188.552 14.7007 188.943 16.071C189.335 17.4414 190.901 20.5738 191.292 21.3568C191.468 21.707 193.446 25.0764 195.404 27.0341C197.361 28.9918 199.123 29.5791 200.298 29.5791C201.238 29.5791 202.125 28.9265 202.451 28.6002C201.407 26.7731 199.28 23.1187 199.123 23.1187C198.927 23.1187 198.144 23.5103 197.361 23.3145C196.981 23.2196 196.316 22.7815 195.208 21.3568C193.837 19.595 193.437 18.1896 193.054 16.6584C192.859 15.8753 193.446 14.7659 194.033 14.1134Z" fill="white" stroke="#044A9B" stroke-width="0.2"/>
<rect x="193.779" y="6.35177" width="7.28675" height="3.02656" rx="0.9" transform="rotate(59.4876 193.779 6.35177)" fill="white" stroke="#044A9B" stroke-width="0.2"/>
<rect x="202.258" y="20.7111" width="7.28675" height="3.02656" rx="0.9" transform="rotate(59.4876 202.258 20.7111)" fill="white" stroke="#044A9B" stroke-width="0.2"/>
</svg>
