<svg width="38" height="38" viewBox="0 0 38 38" fill="none" xmlns="http://www.w3.org/2000/svg">
<path d="M0 18.24C0 9.64158 1.88748e-07 5.34237 2.67119 2.67119C5.34237 0 9.64158 0 18.24 0H19.76C28.3584 0 32.6576 0 35.3288 2.67119C38 5.34237 38 9.64158 38 18.24V19.76C38 28.3584 38 32.6576 35.3288 35.3288C32.6576 38 28.3584 38 19.76 38H18.24C9.64158 38 5.34237 38 2.67119 35.3288C1.88748e-07 32.6576 0 28.3584 0 19.76V18.24Z" fill="#044A9B"/>
<path d="M20.2873 27.471C11.7295 27.471 6.53742 21.5225 6.33398 11.6377H10.6683C10.8034 18.8988 14.1008 21.9758 16.6285 22.6085V11.6377H20.7822V17.9041C23.2203 17.6334 25.7724 14.7831 26.6301 11.6377H30.7185C30.0642 15.5055 27.2859 18.3558 25.323 19.5315C27.2875 20.4822 30.4482 22.9705 31.6673 27.471H27.1736C26.2248 24.4625 23.9005 22.1324 20.7837 21.816V27.471H20.2873Z" fill="white"/>
</svg>
