<svg width="257" height="50" viewBox="0 0 257 50" fill="none" xmlns="http://www.w3.org/2000/svg">
<path d="M7.26562 12.3398L11.7773 0.9375H14.3789L8.34375 15.1523C8.17188 15.5508 7.98047 15.9375 7.76953 16.3125C7.55859 16.6797 7.30078 17.0078 6.99609 17.2969C6.69141 17.5859 6.3125 17.8164 5.85938 17.9883C5.41406 18.1602 4.85938 18.2461 4.19531 18.2461C4.00781 18.2461 3.78516 18.2344 3.52734 18.2109C3.26953 18.1953 3.10156 18.1758 3.02344 18.1523L3.09375 16.3477C3.17969 16.3633 3.34766 16.3789 3.59766 16.3945C3.84766 16.4023 4.03125 16.4062 4.14844 16.4062C4.59375 16.4062 4.94531 16.3164 5.20312 16.1367C5.46094 15.957 5.66797 15.7305 5.82422 15.457C5.98828 15.1758 6.13672 14.8906 6.26953 14.6016L7.26562 12.3398ZM3.43359 0.9375L8.17969 11.5664L8.74219 13.6641L6.84375 13.8047L0.902344 0.9375H3.43359ZM24.1523 10.8164V12.5742H17.4492V10.8164H24.1523ZM17.9062 5.32031V18H15.7383V5.32031H17.9062ZM25.9102 5.32031V18H23.7305V5.32031H25.9102ZM31.7461 14.5664L37.5938 5.32031H39.7734V18H37.5938V8.75391L31.7461 18H29.5898V5.32031H31.7461V14.5664ZM49.207 12.4219H45.0469L45.0234 10.6875H48.4219C49.0938 10.6875 49.6523 10.6211 50.0977 10.4883C50.5508 10.3555 50.8906 10.1562 51.1172 9.89062C51.3438 9.625 51.457 9.29688 51.457 8.90625C51.457 8.60156 51.3906 8.33594 51.2578 8.10938C51.1328 7.875 50.9414 7.68359 50.6836 7.53516C50.4258 7.37891 50.1055 7.26562 49.7227 7.19531C49.3477 7.11719 48.9062 7.07812 48.3984 7.07812H45.6211V18H43.4531V5.32031H48.3984C49.2031 5.32031 49.9258 5.39062 50.5664 5.53125C51.2148 5.67188 51.7656 5.88672 52.2188 6.17578C52.6797 6.45703 53.0312 6.81641 53.2734 7.25391C53.5156 7.69141 53.6367 8.20703 53.6367 8.80078C53.6367 9.18359 53.5586 9.54688 53.4023 9.89062C53.2461 10.2344 53.0156 10.5391 52.7109 10.8047C52.4062 11.0703 52.0312 11.2891 51.5859 11.4609C51.1406 11.625 50.6289 11.7305 50.0508 11.7773L49.207 12.4219ZM49.207 18H44.2617L45.3398 16.2422H49.207C49.8086 16.2422 50.3086 16.168 50.707 16.0195C51.1055 15.8633 51.4023 15.6445 51.5977 15.3633C51.8008 15.0742 51.9023 14.7305 51.9023 14.332C51.9023 13.9336 51.8008 13.5938 51.5977 13.3125C51.4023 13.0234 51.1055 12.8047 50.707 12.6562C50.3086 12.5 49.8086 12.4219 49.207 12.4219H45.9141L45.9375 10.6875H50.0508L50.8359 11.3438C51.5312 11.3984 52.1211 11.5703 52.6055 11.8594C53.0898 12.1484 53.457 12.5156 53.707 12.9609C53.957 13.3984 54.082 13.875 54.082 14.3906C54.082 14.9844 53.9688 15.5078 53.7422 15.9609C53.5234 16.4141 53.2031 16.793 52.7812 17.0977C52.3594 17.3945 51.8477 17.6211 51.2461 17.7773C50.6445 17.9258 49.9648 18 49.207 18ZM62.25 18.2344C61.3672 18.2344 60.5664 18.0859 59.8477 17.7891C59.1367 17.4844 58.5234 17.0586 58.0078 16.5117C57.5 15.9648 57.1094 15.3164 56.8359 14.5664C56.5625 13.8164 56.4258 12.9961 56.4258 12.1055V11.6133C56.4258 10.582 56.5781 9.66406 56.8828 8.85938C57.1875 8.04688 57.6016 7.35938 58.125 6.79688C58.6484 6.23438 59.2422 5.80859 59.9062 5.51953C60.5703 5.23047 61.2578 5.08594 61.9688 5.08594C62.875 5.08594 63.6562 5.24219 64.3125 5.55469C64.9766 5.86719 65.5195 6.30469 65.9414 6.86719C66.3633 7.42188 66.6758 8.07812 66.8789 8.83594C67.082 9.58594 67.1836 10.4062 67.1836 11.2969V12.2695H57.7148V10.5H65.0156V10.3359C64.9844 9.77344 64.8672 9.22656 64.6641 8.69531C64.4688 8.16406 64.1562 7.72656 63.7266 7.38281C63.2969 7.03906 62.7109 6.86719 61.9688 6.86719C61.4766 6.86719 61.0234 6.97266 60.6094 7.18359C60.1953 7.38672 59.8398 7.69141 59.543 8.09766C59.2461 8.50391 59.0156 9 58.8516 9.58594C58.6875 10.1719 58.6055 10.8477 58.6055 11.6133V12.1055C58.6055 12.707 58.6875 13.2734 58.8516 13.8047C59.0234 14.3281 59.2695 14.7891 59.5898 15.1875C59.918 15.5859 60.3125 15.8984 60.7734 16.125C61.2422 16.3516 61.7734 16.4648 62.3672 16.4648C63.1328 16.4648 63.7812 16.3086 64.3125 15.9961C64.8438 15.6836 65.3086 15.2656 65.707 14.7422L67.0195 15.7852C66.7461 16.1992 66.3984 16.5938 65.9766 16.9688C65.5547 17.3438 65.0352 17.6484 64.418 17.8828C63.8086 18.1172 63.0859 18.2344 62.25 18.2344ZM71.8828 7.75781V22.875H69.7031V5.32031H71.6953L71.8828 7.75781ZM80.4258 11.5547V11.8008C80.4258 12.7227 80.3164 13.5781 80.0977 14.3672C79.8789 15.1484 79.5586 15.8281 79.1367 16.4062C78.7227 16.9844 78.2109 17.4336 77.6016 17.7539C76.9922 18.0742 76.293 18.2344 75.5039 18.2344C74.6992 18.2344 73.9883 18.1016 73.3711 17.8359C72.7539 17.5703 72.2305 17.1836 71.8008 16.6758C71.3711 16.168 71.0273 15.5586 70.7695 14.8477C70.5195 14.1367 70.3477 13.3359 70.2539 12.4453V11.1328C70.3477 10.1953 70.5234 9.35547 70.7812 8.61328C71.0391 7.87109 71.3789 7.23828 71.8008 6.71484C72.2305 6.18359 72.75 5.78125 73.3594 5.50781C73.9688 5.22656 74.6719 5.08594 75.4688 5.08594C76.2656 5.08594 76.9727 5.24219 77.5898 5.55469C78.207 5.85938 78.7266 6.29688 79.1484 6.86719C79.5703 7.4375 79.8867 8.12109 80.0977 8.91797C80.3164 9.70703 80.4258 10.5859 80.4258 11.5547ZM78.2461 11.8008V11.5547C78.2461 10.9219 78.1797 10.3281 78.0469 9.77344C77.9141 9.21094 77.707 8.71875 77.4258 8.29688C77.1523 7.86719 76.8008 7.53125 76.3711 7.28906C75.9414 7.03906 75.4297 6.91406 74.8359 6.91406C74.2891 6.91406 73.8125 7.00781 73.4062 7.19531C73.0078 7.38281 72.668 7.63672 72.3867 7.95703C72.1055 8.26953 71.875 8.62891 71.6953 9.03516C71.5234 9.43359 71.3945 9.84766 71.3086 10.2773V13.3125C71.4648 13.8594 71.6836 14.375 71.9648 14.8594C72.2461 15.3359 72.6211 15.7227 73.0898 16.0195C73.5586 16.3086 74.1484 16.4531 74.8594 16.4531C75.4453 16.4531 75.9492 16.332 76.3711 16.0898C76.8008 15.8398 77.1523 15.5 77.4258 15.0703C77.707 14.6406 77.9141 14.1484 78.0469 13.5938C78.1797 13.0312 78.2461 12.4336 78.2461 11.8008ZM88.2656 16.4531C88.7812 16.4531 89.2578 16.3477 89.6953 16.1367C90.1328 15.9258 90.4922 15.6367 90.7734 15.2695C91.0547 14.8945 91.2148 14.4688 91.2539 13.9922H93.3164C93.2773 14.7422 93.0234 15.4414 92.5547 16.0898C92.0938 16.7305 91.4883 17.25 90.7383 17.6484C89.9883 18.0391 89.1641 18.2344 88.2656 18.2344C87.3125 18.2344 86.4805 18.0664 85.7695 17.7305C85.0664 17.3945 84.4805 16.9336 84.0117 16.3477C83.5508 15.7617 83.2031 15.0898 82.9688 14.332C82.7422 13.5664 82.6289 12.7578 82.6289 11.9062V11.4141C82.6289 10.5625 82.7422 9.75781 82.9688 9C83.2031 8.23438 83.5508 7.55859 84.0117 6.97266C84.4805 6.38672 85.0664 5.92578 85.7695 5.58984C86.4805 5.25391 87.3125 5.08594 88.2656 5.08594C89.2578 5.08594 90.125 5.28906 90.8672 5.69531C91.6094 6.09375 92.1914 6.64062 92.6133 7.33594C93.043 8.02344 93.2773 8.80469 93.3164 9.67969H91.2539C91.2148 9.15625 91.0664 8.68359 90.8086 8.26172C90.5586 7.83984 90.2148 7.50391 89.7773 7.25391C89.3477 6.99609 88.8438 6.86719 88.2656 6.86719C87.6016 6.86719 87.043 7 86.5898 7.26562C86.1445 7.52344 85.7891 7.875 85.5234 8.32031C85.2656 8.75781 85.0781 9.24609 84.9609 9.78516C84.8516 10.3164 84.7969 10.8594 84.7969 11.4141V11.9062C84.7969 12.4609 84.8516 13.0078 84.9609 13.5469C85.0703 14.0859 85.2539 14.5742 85.5117 15.0117C85.7773 15.4492 86.1328 15.8008 86.5781 16.0664C87.0312 16.3242 87.5938 16.4531 88.2656 16.4531ZM103.23 15.832V9.30469C103.23 8.80469 103.129 8.37109 102.926 8.00391C102.73 7.62891 102.434 7.33984 102.035 7.13672C101.637 6.93359 101.145 6.83203 100.559 6.83203C100.012 6.83203 99.5312 6.92578 99.1172 7.11328C98.7109 7.30078 98.3906 7.54688 98.1562 7.85156C97.9297 8.15625 97.8164 8.48438 97.8164 8.83594H95.6484C95.6484 8.38281 95.7656 7.93359 96 7.48828C96.2344 7.04297 96.5703 6.64062 97.0078 6.28125C97.4531 5.91406 97.9844 5.625 98.6016 5.41406C99.2266 5.19531 99.9219 5.08594 100.688 5.08594C101.609 5.08594 102.422 5.24219 103.125 5.55469C103.836 5.86719 104.391 6.33984 104.789 6.97266C105.195 7.59766 105.398 8.38281 105.398 9.32812V15.2344C105.398 15.6562 105.434 16.1055 105.504 16.582C105.582 17.0586 105.695 17.4688 105.844 17.8125V18H103.582C103.473 17.75 103.387 17.418 103.324 17.0039C103.262 16.582 103.23 16.1914 103.23 15.832ZM103.605 10.3125L103.629 11.8359H101.438C100.82 11.8359 100.27 11.8867 99.7852 11.9883C99.3008 12.082 98.8945 12.2266 98.5664 12.4219C98.2383 12.6172 97.9883 12.8633 97.8164 13.1602C97.6445 13.4492 97.5586 13.7891 97.5586 14.1797C97.5586 14.5781 97.6484 14.9414 97.8281 15.2695C98.0078 15.5977 98.2773 15.8594 98.6367 16.0547C99.0039 16.2422 99.4531 16.3359 99.9844 16.3359C100.648 16.3359 101.234 16.1953 101.742 15.9141C102.25 15.6328 102.652 15.2891 102.949 14.8828C103.254 14.4766 103.418 14.082 103.441 13.6992L104.367 14.7422C104.312 15.0703 104.164 15.4336 103.922 15.832C103.68 16.2305 103.355 16.6133 102.949 16.9805C102.551 17.3398 102.074 17.6406 101.52 17.8828C100.973 18.1172 100.355 18.2344 99.668 18.2344C98.8086 18.2344 98.0547 18.0664 97.4062 17.7305C96.7656 17.3945 96.2656 16.9453 95.9062 16.3828C95.5547 15.8125 95.3789 15.1758 95.3789 14.4727C95.3789 13.793 95.5117 13.1953 95.7773 12.6797C96.043 12.1562 96.4258 11.7227 96.9258 11.3789C97.4258 11.0273 98.0273 10.7617 98.7305 10.582C99.4336 10.4023 100.219 10.3125 101.086 10.3125H103.605ZM117.281 5.32031V7.11328H111.152V5.32031H117.281ZM119.191 5.32031V18H117.023V5.32031H119.191ZM110.625 5.32031H112.805L112.477 11.4375C112.422 12.3828 112.332 13.2188 112.207 13.9453C112.09 14.6641 111.926 15.2812 111.715 15.7969C111.512 16.3125 111.254 16.7344 110.941 17.0625C110.637 17.3828 110.27 17.6211 109.84 17.7773C109.41 17.9258 108.914 18 108.352 18H107.672V16.0898L108.141 16.0547C108.477 16.0312 108.762 15.9531 108.996 15.8203C109.238 15.6875 109.441 15.4922 109.605 15.2344C109.77 14.9688 109.902 14.6289 110.004 14.2148C110.113 13.8008 110.195 13.3086 110.25 12.7383C110.312 12.168 110.359 11.5039 110.391 10.7461L110.625 5.32031ZM124.465 9.67969H128.273C129.297 9.67969 130.16 9.85938 130.863 10.2188C131.566 10.5703 132.098 11.0586 132.457 11.6836C132.824 12.3008 133.008 13.0039 133.008 13.793C133.008 14.3789 132.906 14.9297 132.703 15.4453C132.5 15.9531 132.195 16.3984 131.789 16.7812C131.391 17.1641 130.895 17.4648 130.301 17.6836C129.715 17.8945 129.039 18 128.273 18H122.883V5.32031H125.051V16.2188H128.273C128.898 16.2188 129.398 16.1055 129.773 15.8789C130.148 15.6523 130.418 15.3594 130.582 15C130.746 14.6406 130.828 14.2656 130.828 13.875C130.828 13.4922 130.746 13.1172 130.582 12.75C130.418 12.3828 130.148 12.0781 129.773 11.8359C129.398 11.5859 128.898 11.4609 128.273 11.4609H124.465V9.67969ZM144.316 10.8164V12.5742H137.613V10.8164H144.316ZM138.07 5.32031V18H135.902V5.32031H138.07ZM146.074 5.32031V18H143.895V5.32031H146.074ZM157.043 15.832V9.30469C157.043 8.80469 156.941 8.37109 156.738 8.00391C156.543 7.62891 156.246 7.33984 155.848 7.13672C155.449 6.93359 154.957 6.83203 154.371 6.83203C153.824 6.83203 153.344 6.92578 152.93 7.11328C152.523 7.30078 152.203 7.54688 151.969 7.85156C151.742 8.15625 151.629 8.48438 151.629 8.83594H149.461C149.461 8.38281 149.578 7.93359 149.812 7.48828C150.047 7.04297 150.383 6.64062 150.82 6.28125C151.266 5.91406 151.797 5.625 152.414 5.41406C153.039 5.19531 153.734 5.08594 154.5 5.08594C155.422 5.08594 156.234 5.24219 156.938 5.55469C157.648 5.86719 158.203 6.33984 158.602 6.97266C159.008 7.59766 159.211 8.38281 159.211 9.32812V15.2344C159.211 15.6562 159.246 16.1055 159.316 16.582C159.395 17.0586 159.508 17.4688 159.656 17.8125V18H157.395C157.285 17.75 157.199 17.418 157.137 17.0039C157.074 16.582 157.043 16.1914 157.043 15.832ZM157.418 10.3125L157.441 11.8359H155.25C154.633 11.8359 154.082 11.8867 153.598 11.9883C153.113 12.082 152.707 12.2266 152.379 12.4219C152.051 12.6172 151.801 12.8633 151.629 13.1602C151.457 13.4492 151.371 13.7891 151.371 14.1797C151.371 14.5781 151.461 14.9414 151.641 15.2695C151.82 15.5977 152.09 15.8594 152.449 16.0547C152.816 16.2422 153.266 16.3359 153.797 16.3359C154.461 16.3359 155.047 16.1953 155.555 15.9141C156.062 15.6328 156.465 15.2891 156.762 14.8828C157.066 14.4766 157.23 14.082 157.254 13.6992L158.18 14.7422C158.125 15.0703 157.977 15.4336 157.734 15.832C157.492 16.2305 157.168 16.6133 156.762 16.9805C156.363 17.3398 155.887 17.6406 155.332 17.8828C154.785 18.1172 154.168 18.2344 153.48 18.2344C152.621 18.2344 151.867 18.0664 151.219 17.7305C150.578 17.3945 150.078 16.9453 149.719 16.3828C149.367 15.8125 149.191 15.1758 149.191 14.4727C149.191 13.793 149.324 13.1953 149.59 12.6797C149.855 12.1562 150.238 11.7227 150.738 11.3789C151.238 11.0273 151.84 10.7617 152.543 10.582C153.246 10.4023 154.031 10.3125 154.898 10.3125H157.418ZM165.188 11.9531H167.531L163.863 18H161.52L165.188 11.9531ZM167.004 5.32031H172.301V18H170.133V7.07812H167.004C166.387 7.07812 165.883 7.18359 165.492 7.39453C165.102 7.59766 164.816 7.86328 164.637 8.19141C164.457 8.51953 164.367 8.85938 164.367 9.21094C164.367 9.55469 164.449 9.88672 164.613 10.207C164.777 10.5195 165.035 10.7773 165.387 10.9805C165.738 11.1836 166.191 11.2852 166.746 11.2852H170.719V13.0664H166.746C166.02 13.0664 165.375 12.9688 164.812 12.7734C164.25 12.5781 163.773 12.3086 163.383 11.9648C162.992 11.6133 162.695 11.2031 162.492 10.7344C162.289 10.2578 162.188 9.74219 162.188 9.1875C162.188 8.63281 162.293 8.12109 162.504 7.65234C162.723 7.18359 163.035 6.77344 163.441 6.42188C163.855 6.07031 164.359 5.80078 164.953 5.61328C165.555 5.41797 166.238 5.32031 167.004 5.32031ZM184.102 5.32031V18H181.934V5.32031H184.102ZM192.422 5.32031L186.41 12.5859H183.375L183.047 10.6875H185.531L189.785 5.32031H192.422ZM190.09 18L185.426 12.2578L186.82 10.6875L192.844 18H190.09ZM196.898 7.75781V22.875H194.719V5.32031H196.711L196.898 7.75781ZM205.441 11.5547V11.8008C205.441 12.7227 205.332 13.5781 205.113 14.3672C204.895 15.1484 204.574 15.8281 204.152 16.4062C203.738 16.9844 203.227 17.4336 202.617 17.7539C202.008 18.0742 201.309 18.2344 200.52 18.2344C199.715 18.2344 199.004 18.1016 198.387 17.8359C197.77 17.5703 197.246 17.1836 196.816 16.6758C196.387 16.168 196.043 15.5586 195.785 14.8477C195.535 14.1367 195.363 13.3359 195.27 12.4453V11.1328C195.363 10.1953 195.539 9.35547 195.797 8.61328C196.055 7.87109 196.395 7.23828 196.816 6.71484C197.246 6.18359 197.766 5.78125 198.375 5.50781C198.984 5.22656 199.688 5.08594 200.484 5.08594C201.281 5.08594 201.988 5.24219 202.605 5.55469C203.223 5.85938 203.742 6.29688 204.164 6.86719C204.586 7.4375 204.902 8.12109 205.113 8.91797C205.332 9.70703 205.441 10.5859 205.441 11.5547ZM203.262 11.8008V11.5547C203.262 10.9219 203.195 10.3281 203.062 9.77344C202.93 9.21094 202.723 8.71875 202.441 8.29688C202.168 7.86719 201.816 7.53125 201.387 7.28906C200.957 7.03906 200.445 6.91406 199.852 6.91406C199.305 6.91406 198.828 7.00781 198.422 7.19531C198.023 7.38281 197.684 7.63672 197.402 7.95703C197.121 8.26953 196.891 8.62891 196.711 9.03516C196.539 9.43359 196.41 9.84766 196.324 10.2773V13.3125C196.48 13.8594 196.699 14.375 196.98 14.8594C197.262 15.3359 197.637 15.7227 198.105 16.0195C198.574 16.3086 199.164 16.4531 199.875 16.4531C200.461 16.4531 200.965 16.332 201.387 16.0898C201.816 15.8398 202.168 15.5 202.441 15.0703C202.723 14.6406 202.93 14.1484 203.062 13.5938C203.195 13.0312 203.262 12.4336 203.262 11.8008ZM215.684 15.832V9.30469C215.684 8.80469 215.582 8.37109 215.379 8.00391C215.184 7.62891 214.887 7.33984 214.488 7.13672C214.09 6.93359 213.598 6.83203 213.012 6.83203C212.465 6.83203 211.984 6.92578 211.57 7.11328C211.164 7.30078 210.844 7.54688 210.609 7.85156C210.383 8.15625 210.27 8.48438 210.27 8.83594H208.102C208.102 8.38281 208.219 7.93359 208.453 7.48828C208.688 7.04297 209.023 6.64062 209.461 6.28125C209.906 5.91406 210.438 5.625 211.055 5.41406C211.68 5.19531 212.375 5.08594 213.141 5.08594C214.062 5.08594 214.875 5.24219 215.578 5.55469C216.289 5.86719 216.844 6.33984 217.242 6.97266C217.648 7.59766 217.852 8.38281 217.852 9.32812V15.2344C217.852 15.6562 217.887 16.1055 217.957 16.582C218.035 17.0586 218.148 17.4688 218.297 17.8125V18H216.035C215.926 17.75 215.84 17.418 215.777 17.0039C215.715 16.582 215.684 16.1914 215.684 15.832ZM216.059 10.3125L216.082 11.8359H213.891C213.273 11.8359 212.723 11.8867 212.238 11.9883C211.754 12.082 211.348 12.2266 211.02 12.4219C210.691 12.6172 210.441 12.8633 210.27 13.1602C210.098 13.4492 210.012 13.7891 210.012 14.1797C210.012 14.5781 210.102 14.9414 210.281 15.2695C210.461 15.5977 210.73 15.8594 211.09 16.0547C211.457 16.2422 211.906 16.3359 212.438 16.3359C213.102 16.3359 213.688 16.1953 214.195 15.9141C214.703 15.6328 215.105 15.2891 215.402 14.8828C215.707 14.4766 215.871 14.082 215.895 13.6992L216.82 14.7422C216.766 15.0703 216.617 15.4336 216.375 15.832C216.133 16.2305 215.809 16.6133 215.402 16.9805C215.004 17.3398 214.527 17.6406 213.973 17.8828C213.426 18.1172 212.809 18.2344 212.121 18.2344C211.262 18.2344 210.508 18.0664 209.859 17.7305C209.219 17.3945 208.719 16.9453 208.359 16.3828C208.008 15.8125 207.832 15.1758 207.832 14.4727C207.832 13.793 207.965 13.1953 208.23 12.6797C208.496 12.1562 208.879 11.7227 209.379 11.3789C209.879 11.0273 210.48 10.7617 211.184 10.582C211.887 10.4023 212.672 10.3125 213.539 10.3125H216.059ZM226.336 16.4531C226.852 16.4531 227.328 16.3477 227.766 16.1367C228.203 15.9258 228.562 15.6367 228.844 15.2695C229.125 14.8945 229.285 14.4688 229.324 13.9922H231.387C231.348 14.7422 231.094 15.4414 230.625 16.0898C230.164 16.7305 229.559 17.25 228.809 17.6484C228.059 18.0391 227.234 18.2344 226.336 18.2344C225.383 18.2344 224.551 18.0664 223.84 17.7305C223.137 17.3945 222.551 16.9336 222.082 16.3477C221.621 15.7617 221.273 15.0898 221.039 14.332C220.812 13.5664 220.699 12.7578 220.699 11.9062V11.4141C220.699 10.5625 220.812 9.75781 221.039 9C221.273 8.23438 221.621 7.55859 222.082 6.97266C222.551 6.38672 223.137 5.92578 223.84 5.58984C224.551 5.25391 225.383 5.08594 226.336 5.08594C227.328 5.08594 228.195 5.28906 228.938 5.69531C229.68 6.09375 230.262 6.64062 230.684 7.33594C231.113 8.02344 231.348 8.80469 231.387 9.67969H229.324C229.285 9.15625 229.137 8.68359 228.879 8.26172C228.629 7.83984 228.285 7.50391 227.848 7.25391C227.418 6.99609 226.914 6.86719 226.336 6.86719C225.672 6.86719 225.113 7 224.66 7.26562C224.215 7.52344 223.859 7.875 223.594 8.32031C223.336 8.75781 223.148 9.24609 223.031 9.78516C222.922 10.3164 222.867 10.8594 222.867 11.4141V11.9062C222.867 12.4609 222.922 13.0078 223.031 13.5469C223.141 14.0859 223.324 14.5742 223.582 15.0117C223.848 15.4492 224.203 15.8008 224.648 16.0664C225.102 16.3242 225.664 16.4531 226.336 16.4531ZM236.18 5.32031V18H234.012V5.32031H236.18ZM244.5 5.32031L238.488 12.5859H235.453L235.125 10.6875H237.609L241.863 5.32031H244.5ZM242.168 18L237.504 12.2578L238.898 10.6875L244.922 18H242.168ZM254.285 15.832V9.30469C254.285 8.80469 254.184 8.37109 253.98 8.00391C253.785 7.62891 253.488 7.33984 253.09 7.13672C252.691 6.93359 252.199 6.83203 251.613 6.83203C251.066 6.83203 250.586 6.92578 250.172 7.11328C249.766 7.30078 249.445 7.54688 249.211 7.85156C248.984 8.15625 248.871 8.48438 248.871 8.83594H246.703C246.703 8.38281 246.82 7.93359 247.055 7.48828C247.289 7.04297 247.625 6.64062 248.062 6.28125C248.508 5.91406 249.039 5.625 249.656 5.41406C250.281 5.19531 250.977 5.08594 251.742 5.08594C252.664 5.08594 253.477 5.24219 254.18 5.55469C254.891 5.86719 255.445 6.33984 255.844 6.97266C256.25 7.59766 256.453 8.38281 256.453 9.32812V15.2344C256.453 15.6562 256.488 16.1055 256.559 16.582C256.637 17.0586 256.75 17.4688 256.898 17.8125V18H254.637C254.527 17.75 254.441 17.418 254.379 17.0039C254.316 16.582 254.285 16.1914 254.285 15.832ZM254.66 10.3125L254.684 11.8359H252.492C251.875 11.8359 251.324 11.8867 250.84 11.9883C250.355 12.082 249.949 12.2266 249.621 12.4219C249.293 12.6172 249.043 12.8633 248.871 13.1602C248.699 13.4492 248.613 13.7891 248.613 14.1797C248.613 14.5781 248.703 14.9414 248.883 15.2695C249.062 15.5977 249.332 15.8594 249.691 16.0547C250.059 16.2422 250.508 16.3359 251.039 16.3359C251.703 16.3359 252.289 16.1953 252.797 15.9141C253.305 15.6328 253.707 15.2891 254.004 14.8828C254.309 14.4766 254.473 14.082 254.496 13.6992L255.422 14.7422C255.367 15.0703 255.219 15.4336 254.977 15.832C254.734 16.2305 254.41 16.6133 254.004 16.9805C253.605 17.3398 253.129 17.6406 252.574 17.8828C252.027 18.1172 251.41 18.2344 250.723 18.2344C249.863 18.2344 249.109 18.0664 248.461 17.7305C247.82 17.3945 247.32 16.9453 246.961 16.3828C246.609 15.8125 246.434 15.1758 246.434 14.4727C246.434 13.793 246.566 13.1953 246.832 12.6797C247.098 12.1562 247.48 11.7227 247.98 11.3789C248.48 11.0273 249.082 10.7617 249.785 10.582C250.488 10.4023 251.273 10.3125 252.141 10.3125H254.66ZM3.9375 33.3203H6.10547L5.91797 38.0664C5.87109 39.2695 5.73438 40.3086 5.50781 41.1836C5.28125 42.0586 4.99219 42.8047 4.64062 43.4219C4.28906 44.0312 3.89453 44.543 3.45703 44.957C3.02734 45.3711 2.58203 45.7188 2.12109 46H1.04297L1.10156 44.2305L1.54688 44.2188C1.80469 43.9141 2.05469 43.6016 2.29688 43.2812C2.53906 42.9531 2.76172 42.5664 2.96484 42.1211C3.16797 41.668 3.33594 41.1172 3.46875 40.4688C3.60938 39.8125 3.69922 39.0117 3.73828 38.0664L3.9375 33.3203ZM4.47656 33.3203H12.1055V46H9.9375V35.3242H4.47656V33.3203ZM0.550781 44.2188H13.7344V49.7383H11.5664V46H2.71875V49.7383H0.539062L0.550781 44.2188ZM24.6094 33.3203V35.1133H18.4805V33.3203H24.6094ZM26.5195 33.3203V46H24.3516V33.3203H26.5195ZM17.9531 33.3203H20.1328L19.8047 39.4375C19.75 40.3828 19.6602 41.2188 19.5352 41.9453C19.418 42.6641 19.2539 43.2812 19.043 43.7969C18.8398 44.3125 18.582 44.7344 18.2695 45.0625C17.9648 45.3828 17.5977 45.6211 17.168 45.7773C16.7383 45.9258 16.2422 46 15.6797 46H15V44.0898L15.4688 44.0547C15.8047 44.0312 16.0898 43.9531 16.3242 43.8203C16.5664 43.6875 16.7695 43.4922 16.9336 43.2344C17.0977 42.9688 17.2305 42.6289 17.332 42.2148C17.4414 41.8008 17.5234 41.3086 17.5781 40.7383C17.6406 40.168 17.6875 39.5039 17.7188 38.7461L17.9531 33.3203ZM32.5781 39.9531H34.9219L31.2539 46H28.9102L32.5781 39.9531ZM34.3945 33.3203H39.6914V46H37.5234V35.0781H34.3945C33.7773 35.0781 33.2734 35.1836 32.8828 35.3945C32.4922 35.5977 32.207 35.8633 32.0273 36.1914C31.8477 36.5195 31.7578 36.8594 31.7578 37.2109C31.7578 37.5547 31.8398 37.8867 32.0039 38.207C32.168 38.5195 32.4258 38.7773 32.7773 38.9805C33.1289 39.1836 33.582 39.2852 34.1367 39.2852H38.1094V41.0664H34.1367C33.4102 41.0664 32.7656 40.9688 32.2031 40.7734C31.6406 40.5781 31.1641 40.3086 30.7734 39.9648C30.3828 39.6133 30.0859 39.2031 29.8828 38.7344C29.6797 38.2578 29.5781 37.7422 29.5781 37.1875C29.5781 36.6328 29.6836 36.1211 29.8945 35.6523C30.1133 35.1836 30.4258 34.7734 30.832 34.4219C31.2461 34.0703 31.75 33.8008 32.3438 33.6133C32.9453 33.418 33.6289 33.3203 34.3945 33.3203ZM57.6094 33.3203V35.1133H51.4805V33.3203H57.6094ZM59.5195 33.3203V46H57.3516V33.3203H59.5195ZM50.9531 33.3203H53.1328L52.8047 39.4375C52.75 40.3828 52.6602 41.2188 52.5352 41.9453C52.418 42.6641 52.2539 43.2812 52.043 43.7969C51.8398 44.3125 51.582 44.7344 51.2695 45.0625C50.9648 45.3828 50.5977 45.6211 50.168 45.7773C49.7383 45.9258 49.2422 46 48.6797 46H48V44.0898L48.4688 44.0547C48.8047 44.0312 49.0898 43.9531 49.3242 43.8203C49.5664 43.6875 49.7695 43.4922 49.9336 43.2344C50.0977 42.9688 50.2305 42.6289 50.332 42.2148C50.4414 41.8008 50.5234 41.3086 50.5781 40.7383C50.6406 40.168 50.6875 39.5039 50.7188 38.7461L50.9531 33.3203ZM70.2305 38.6992V40.4688H63.4922V38.6992H70.2305ZM65.3789 33.3203V46H63.2109V33.3203H65.3789ZM68.3789 39.8008V39.5312C68.3789 38.6172 68.5117 37.7695 68.7773 36.9883C69.043 36.1992 69.4258 35.5156 69.9258 34.9375C70.4336 34.3516 71.0391 33.8984 71.7422 33.5781C72.4531 33.25 73.25 33.0859 74.1328 33.0859C75.0312 33.0859 75.8359 33.25 76.5469 33.5781C77.2578 33.8984 77.8633 34.3516 78.3633 34.9375C78.8711 35.5156 79.2578 36.1992 79.5234 36.9883C79.7891 37.7695 79.9219 38.6172 79.9219 39.5312V39.8008C79.9219 40.7148 79.7891 41.5625 79.5234 42.3438C79.2578 43.125 78.875 43.8086 78.375 44.3945C77.875 44.9727 77.2695 45.4258 76.5586 45.7539C75.8477 46.0742 75.0469 46.2344 74.1562 46.2344C73.2656 46.2344 72.4648 46.0742 71.7539 45.7539C71.043 45.4258 70.4336 44.9727 69.9258 44.3945C69.4258 43.8086 69.043 43.125 68.7773 42.3438C68.5117 41.5625 68.3789 40.7148 68.3789 39.8008ZM70.5586 39.5312V39.8008C70.5586 40.4336 70.6328 41.0312 70.7812 41.5938C70.9297 42.1484 71.1523 42.6406 71.4492 43.0703C71.7539 43.5 72.1289 43.8398 72.5742 44.0898C73.0273 44.332 73.5547 44.4531 74.1562 44.4531C74.7578 44.4531 75.2812 44.332 75.7266 44.0898C76.1797 43.8398 76.5547 43.5 76.8516 43.0703C77.1484 42.6406 77.3711 42.1484 77.5195 41.5938C77.6758 41.0312 77.7539 40.4336 77.7539 39.8008V39.5312C77.7539 38.9062 77.6758 38.3164 77.5195 37.7617C77.3711 37.1992 77.1445 36.7031 76.8398 36.2734C76.543 35.8359 76.168 35.4922 75.7148 35.2422C75.2617 34.9922 74.7344 34.8672 74.1328 34.8672C73.5391 34.8672 73.0195 34.9922 72.5742 35.2422C72.1289 35.4922 71.7539 35.8359 71.4492 36.2734C71.1523 36.7031 70.9297 37.1992 70.7812 37.7617C70.6328 38.3164 70.5586 38.9062 70.5586 39.5312ZM90.7383 27.8008H92.5195C92.5195 28.5664 92.4023 29.1758 92.168 29.6289C91.9336 30.0742 91.6133 30.418 91.207 30.6602C90.8086 30.9023 90.3555 31.0859 89.8477 31.2109C89.3477 31.3359 88.8281 31.457 88.2891 31.5742C87.6172 31.7148 86.9922 31.9375 86.4141 32.2422C85.8438 32.5391 85.3516 32.9609 84.9375 33.5078C84.5312 34.0547 84.2305 34.7656 84.0352 35.6406C83.8477 36.5156 83.7969 37.5977 83.8828 38.8867V39.9648H82.1016V38.8867C82.1016 37.4414 82.2383 36.1797 82.5117 35.1016C82.793 34.0234 83.1875 33.1133 83.6953 32.3711C84.2031 31.6289 84.8047 31.0391 85.5 30.6016C86.2031 30.1641 86.9766 29.8633 87.8203 29.6992C88.4297 29.582 88.9531 29.457 89.3906 29.3242C89.8281 29.1836 90.1602 28.9961 90.3867 28.7617C90.6211 28.5273 90.7383 28.207 90.7383 27.8008ZM88.1719 34.0469C89 34.0469 89.7383 34.1914 90.3867 34.4805C91.0352 34.7695 91.5859 35.1719 92.0391 35.6875C92.4922 36.2031 92.8359 36.8125 93.0703 37.5156C93.3125 38.2109 93.4336 38.9688 93.4336 39.7891V40.0469C93.4336 40.9297 93.3047 41.75 93.0469 42.5078C92.7969 43.2578 92.4258 43.9141 91.9336 44.4766C91.4492 45.0312 90.8555 45.4648 90.1523 45.7773C89.457 46.0898 88.6641 46.2461 87.7734 46.2461C86.8828 46.2461 86.0859 46.0898 85.3828 45.7773C84.6875 45.4648 84.0938 45.0312 83.6016 44.4766C83.1094 43.9141 82.7344 43.2578 82.4766 42.5078C82.2266 41.75 82.1016 40.9297 82.1016 40.0469V39.7891C82.1016 39.5938 82.1367 39.4023 82.207 39.2148C82.2773 39.0273 82.3633 38.8359 82.4648 38.6406C82.5742 38.4453 82.6719 38.2383 82.7578 38.0195C83.0469 37.3164 83.4414 36.6641 83.9414 36.0625C84.4492 35.4609 85.0547 34.9766 85.7578 34.6094C86.4688 34.2344 87.2734 34.0469 88.1719 34.0469ZM87.75 35.8164C86.9531 35.8164 86.2969 36 85.7812 36.3672C85.2734 36.7344 84.8945 37.2227 84.6445 37.832C84.3945 38.4336 84.2695 39.0859 84.2695 39.7891V40.0469C84.2695 40.6406 84.3398 41.2031 84.4805 41.7344C84.6211 42.2656 84.832 42.7383 85.1133 43.1523C85.4023 43.5586 85.7656 43.8789 86.2031 44.1133C86.6484 44.3477 87.1719 44.4648 87.7734 44.4648C88.375 44.4648 88.8945 44.3477 89.332 44.1133C89.7695 43.8789 90.1289 43.5586 90.4102 43.1523C90.6914 42.7383 90.9023 42.2656 91.043 41.7344C91.1836 41.2031 91.2539 40.6406 91.2539 40.0469V39.7891C91.2539 39.2578 91.1836 38.7539 91.043 38.2773C90.9023 37.8008 90.6875 37.3789 90.3984 37.0117C90.1172 36.6445 89.7539 36.3555 89.3086 36.1445C88.8711 35.9258 88.3516 35.8164 87.75 35.8164ZM97.6758 37.6797H101.484C102.508 37.6797 103.371 37.8594 104.074 38.2188C104.777 38.5703 105.309 39.0586 105.668 39.6836C106.035 40.3008 106.219 41.0039 106.219 41.793C106.219 42.3789 106.117 42.9297 105.914 43.4453C105.711 43.9531 105.406 44.3984 105 44.7812C104.602 45.1641 104.105 45.4648 103.512 45.6836C102.926 45.8945 102.25 46 101.484 46H96.0938V33.3203H98.2617V44.2188H101.484C102.109 44.2188 102.609 44.1055 102.984 43.8789C103.359 43.6523 103.629 43.3594 103.793 43C103.957 42.6406 104.039 42.2656 104.039 41.875C104.039 41.4922 103.957 41.1172 103.793 40.75C103.629 40.3828 103.359 40.0781 102.984 39.8359C102.609 39.5859 102.109 39.4609 101.484 39.4609H97.6758V37.6797ZM110.73 33.3203V46H108.562V33.3203H110.73ZM115.992 33.3203L118.77 37.9375L121.582 33.3203H124.125L119.977 39.5781L124.254 46H121.746L118.816 41.2422L115.887 46H113.367L117.633 39.5781L113.496 33.3203H115.992ZM137.121 39.9414H134.789V38.6055H136.945C137.547 38.6055 138.023 38.5312 138.375 38.3828C138.727 38.2266 138.977 38.0117 139.125 37.7383C139.273 37.4648 139.348 37.1445 139.348 36.7773C139.348 36.4492 139.262 36.1406 139.09 35.8516C138.926 35.5547 138.66 35.3164 138.293 35.1367C137.926 34.9492 137.434 34.8555 136.816 34.8555C136.316 34.8555 135.863 34.9453 135.457 35.125C135.051 35.2969 134.727 35.5352 134.484 35.8398C134.25 36.1367 134.133 36.4727 134.133 36.8477H131.965C131.965 36.0742 132.184 35.4102 132.621 34.8555C133.066 34.293 133.656 33.8594 134.391 33.5547C135.133 33.25 135.941 33.0977 136.816 33.0977C137.551 33.0977 138.207 33.1797 138.785 33.3438C139.371 33.5 139.867 33.7344 140.273 34.0469C140.68 34.3516 140.988 34.7344 141.199 35.1953C141.418 35.6484 141.527 36.1758 141.527 36.7773C141.527 37.207 141.426 37.6133 141.223 37.9961C141.02 38.3789 140.727 38.7188 140.344 39.0156C139.961 39.3047 139.496 39.5312 138.949 39.6953C138.41 39.8594 137.801 39.9414 137.121 39.9414ZM134.789 39.1211H137.121C137.879 39.1211 138.547 39.1953 139.125 39.3438C139.703 39.4844 140.188 39.6953 140.578 39.9766C140.969 40.2578 141.262 40.6055 141.457 41.0195C141.66 41.4258 141.762 41.8945 141.762 42.4258C141.762 43.0195 141.641 43.5547 141.398 44.0312C141.164 44.5 140.828 44.8984 140.391 45.2266C139.953 45.5547 139.43 45.8047 138.82 45.9766C138.219 46.1484 137.551 46.2344 136.816 46.2344C135.996 46.2344 135.199 46.0938 134.426 45.8125C133.652 45.5312 133.016 45.0977 132.516 44.5117C132.016 43.918 131.766 43.1641 131.766 42.25H133.934C133.934 42.6328 134.055 42.9961 134.297 43.3398C134.539 43.6836 134.875 43.9609 135.305 44.1719C135.742 44.3828 136.246 44.4883 136.816 44.4883C137.426 44.4883 137.934 44.3945 138.34 44.207C138.746 44.0195 139.051 43.7695 139.254 43.457C139.465 43.1445 139.57 42.8047 139.57 42.4375C139.57 41.9609 139.477 41.5781 139.289 41.2891C139.102 41 138.812 40.7891 138.422 40.6562C138.039 40.5156 137.547 40.4453 136.945 40.4453H134.789V39.1211ZM152.051 43.832V37.3047C152.051 36.8047 151.949 36.3711 151.746 36.0039C151.551 35.6289 151.254 35.3398 150.855 35.1367C150.457 34.9336 149.965 34.832 149.379 34.832C148.832 34.832 148.352 34.9258 147.938 35.1133C147.531 35.3008 147.211 35.5469 146.977 35.8516C146.75 36.1562 146.637 36.4844 146.637 36.8359H144.469C144.469 36.3828 144.586 35.9336 144.82 35.4883C145.055 35.043 145.391 34.6406 145.828 34.2812C146.273 33.9141 146.805 33.625 147.422 33.4141C148.047 33.1953 148.742 33.0859 149.508 33.0859C150.43 33.0859 151.242 33.2422 151.945 33.5547C152.656 33.8672 153.211 34.3398 153.609 34.9727C154.016 35.5977 154.219 36.3828 154.219 37.3281V43.2344C154.219 43.6562 154.254 44.1055 154.324 44.582C154.402 45.0586 154.516 45.4688 154.664 45.8125V46H152.402C152.293 45.75 152.207 45.418 152.145 45.0039C152.082 44.582 152.051 44.1914 152.051 43.832ZM152.426 38.3125L152.449 39.8359H150.258C149.641 39.8359 149.09 39.8867 148.605 39.9883C148.121 40.082 147.715 40.2266 147.387 40.4219C147.059 40.6172 146.809 40.8633 146.637 41.1602C146.465 41.4492 146.379 41.7891 146.379 42.1797C146.379 42.5781 146.469 42.9414 146.648 43.2695C146.828 43.5977 147.098 43.8594 147.457 44.0547C147.824 44.2422 148.273 44.3359 148.805 44.3359C149.469 44.3359 150.055 44.1953 150.562 43.9141C151.07 43.6328 151.473 43.2891 151.77 42.8828C152.074 42.4766 152.238 42.082 152.262 41.6992L153.188 42.7422C153.133 43.0703 152.984 43.4336 152.742 43.832C152.5 44.2305 152.176 44.6133 151.77 44.9805C151.371 45.3398 150.895 45.6406 150.34 45.8828C149.793 46.1172 149.176 46.2344 148.488 46.2344C147.629 46.2344 146.875 46.0664 146.227 45.7305C145.586 45.3945 145.086 44.9453 144.727 44.3828C144.375 43.8125 144.199 43.1758 144.199 42.4727C144.199 41.793 144.332 41.1953 144.598 40.6797C144.863 40.1562 145.246 39.7227 145.746 39.3789C146.246 39.0273 146.848 38.7617 147.551 38.582C148.254 38.4023 149.039 38.3125 149.906 38.3125H152.426ZM159.914 33.3203H162.082L161.895 38.0664C161.848 39.2695 161.711 40.3086 161.484 41.1836C161.258 42.0586 160.969 42.8047 160.617 43.4219C160.266 44.0312 159.871 44.543 159.434 44.957C159.004 45.3711 158.559 45.7188 158.098 46H157.02L157.078 44.2305L157.523 44.2188C157.781 43.9141 158.031 43.6016 158.273 43.2812C158.516 42.9531 158.738 42.5664 158.941 42.1211C159.145 41.668 159.312 41.1172 159.445 40.4688C159.586 39.8125 159.676 39.0117 159.715 38.0664L159.914 33.3203ZM160.453 33.3203H168.082V46H165.914V35.3242H160.453V33.3203ZM156.527 44.2188H169.711V49.7383H167.543V46H158.695V49.7383H156.516L156.527 44.2188ZM179.59 43.832V37.3047C179.59 36.8047 179.488 36.3711 179.285 36.0039C179.09 35.6289 178.793 35.3398 178.395 35.1367C177.996 34.9336 177.504 34.832 176.918 34.832C176.371 34.832 175.891 34.9258 175.477 35.1133C175.07 35.3008 174.75 35.5469 174.516 35.8516C174.289 36.1562 174.176 36.4844 174.176 36.8359H172.008C172.008 36.3828 172.125 35.9336 172.359 35.4883C172.594 35.043 172.93 34.6406 173.367 34.2812C173.812 33.9141 174.344 33.625 174.961 33.4141C175.586 33.1953 176.281 33.0859 177.047 33.0859C177.969 33.0859 178.781 33.2422 179.484 33.5547C180.195 33.8672 180.75 34.3398 181.148 34.9727C181.555 35.5977 181.758 36.3828 181.758 37.3281V43.2344C181.758 43.6562 181.793 44.1055 181.863 44.582C181.941 45.0586 182.055 45.4688 182.203 45.8125V46H179.941C179.832 45.75 179.746 45.418 179.684 45.0039C179.621 44.582 179.59 44.1914 179.59 43.832ZM179.965 38.3125L179.988 39.8359H177.797C177.18 39.8359 176.629 39.8867 176.145 39.9883C175.66 40.082 175.254 40.2266 174.926 40.4219C174.598 40.6172 174.348 40.8633 174.176 41.1602C174.004 41.4492 173.918 41.7891 173.918 42.1797C173.918 42.5781 174.008 42.9414 174.188 43.2695C174.367 43.5977 174.637 43.8594 174.996 44.0547C175.363 44.2422 175.812 44.3359 176.344 44.3359C177.008 44.3359 177.594 44.1953 178.102 43.9141C178.609 43.6328 179.012 43.2891 179.309 42.8828C179.613 42.4766 179.777 42.082 179.801 41.6992L180.727 42.7422C180.672 43.0703 180.523 43.4336 180.281 43.832C180.039 44.2305 179.715 44.6133 179.309 44.9805C178.91 45.3398 178.434 45.6406 177.879 45.8828C177.332 46.1172 176.715 46.2344 176.027 46.2344C175.168 46.2344 174.414 46.0664 173.766 45.7305C173.125 45.3945 172.625 44.9453 172.266 44.3828C171.914 43.8125 171.738 43.1758 171.738 42.4727C171.738 41.793 171.871 41.1953 172.137 40.6797C172.402 40.1562 172.785 39.7227 173.285 39.3789C173.785 39.0273 174.387 38.7617 175.09 38.582C175.793 38.4023 176.578 38.3125 177.445 38.3125H179.965ZM194.73 33.3203V46H192.562V33.3203H194.73ZM193.992 39.1445V40.9258C193.555 41.0898 193.109 41.2383 192.656 41.3711C192.211 41.4961 191.738 41.5977 191.238 41.6758C190.746 41.7461 190.211 41.7812 189.633 41.7812C188.633 41.7812 187.766 41.6094 187.031 41.2656C186.297 40.9141 185.73 40.3867 185.332 39.6836C184.934 38.9727 184.734 38.0781 184.734 37V33.2969H186.902V37C186.902 37.7031 187.008 38.2734 187.219 38.7109C187.43 39.1484 187.738 39.4727 188.145 39.6836C188.551 39.8867 189.047 39.9883 189.633 39.9883C190.195 39.9883 190.723 39.9531 191.215 39.8828C191.715 39.8047 192.191 39.7031 192.645 39.5781C193.105 39.4531 193.555 39.3086 193.992 39.1445Z" fill="#C6057F"/>
<path d="M7.26562 12.3398L11.7773 0.9375H14.3789L8.34375 15.1523C8.17188 15.5508 7.98047 15.9375 7.76953 16.3125C7.55859 16.6797 7.30078 17.0078 6.99609 17.2969C6.69141 17.5859 6.3125 17.8164 5.85938 17.9883C5.41406 18.1602 4.85938 18.2461 4.19531 18.2461C4.00781 18.2461 3.78516 18.2344 3.52734 18.2109C3.26953 18.1953 3.10156 18.1758 3.02344 18.1523L3.09375 16.3477C3.17969 16.3633 3.34766 16.3789 3.59766 16.3945C3.84766 16.4023 4.03125 16.4062 4.14844 16.4062C4.59375 16.4062 4.94531 16.3164 5.20312 16.1367C5.46094 15.957 5.66797 15.7305 5.82422 15.457C5.98828 15.1758 6.13672 14.8906 6.26953 14.6016L7.26562 12.3398ZM3.43359 0.9375L8.17969 11.5664L8.74219 13.6641L6.84375 13.8047L0.902344 0.9375H3.43359ZM24.1523 10.8164V12.5742H17.4492V10.8164H24.1523ZM17.9062 5.32031V18H15.7383V5.32031H17.9062ZM25.9102 5.32031V18H23.7305V5.32031H25.9102ZM31.7461 14.5664L37.5938 5.32031H39.7734V18H37.5938V8.75391L31.7461 18H29.5898V5.32031H31.7461V14.5664ZM49.207 12.4219H45.0469L45.0234 10.6875H48.4219C49.0938 10.6875 49.6523 10.6211 50.0977 10.4883C50.5508 10.3555 50.8906 10.1562 51.1172 9.89062C51.3438 9.625 51.457 9.29688 51.457 8.90625C51.457 8.60156 51.3906 8.33594 51.2578 8.10938C51.1328 7.875 50.9414 7.68359 50.6836 7.53516C50.4258 7.37891 50.1055 7.26562 49.7227 7.19531C49.3477 7.11719 48.9062 7.07812 48.3984 7.07812H45.6211V18H43.4531V5.32031H48.3984C49.2031 5.32031 49.9258 5.39062 50.5664 5.53125C51.2148 5.67188 51.7656 5.88672 52.2188 6.17578C52.6797 6.45703 53.0312 6.81641 53.2734 7.25391C53.5156 7.69141 53.6367 8.20703 53.6367 8.80078C53.6367 9.18359 53.5586 9.54688 53.4023 9.89062C53.2461 10.2344 53.0156 10.5391 52.7109 10.8047C52.4062 11.0703 52.0312 11.2891 51.5859 11.4609C51.1406 11.625 50.6289 11.7305 50.0508 11.7773L49.207 12.4219ZM49.207 18H44.2617L45.3398 16.2422H49.207C49.8086 16.2422 50.3086 16.168 50.707 16.0195C51.1055 15.8633 51.4023 15.6445 51.5977 15.3633C51.8008 15.0742 51.9023 14.7305 51.9023 14.332C51.9023 13.9336 51.8008 13.5938 51.5977 13.3125C51.4023 13.0234 51.1055 12.8047 50.707 12.6562C50.3086 12.5 49.8086 12.4219 49.207 12.4219H45.9141L45.9375 10.6875H50.0508L50.8359 11.3438C51.5312 11.3984 52.1211 11.5703 52.6055 11.8594C53.0898 12.1484 53.457 12.5156 53.707 12.9609C53.957 13.3984 54.082 13.875 54.082 14.3906C54.082 14.9844 53.9688 15.5078 53.7422 15.9609C53.5234 16.4141 53.2031 16.793 52.7812 17.0977C52.3594 17.3945 51.8477 17.6211 51.2461 17.7773C50.6445 17.9258 49.9648 18 49.207 18ZM62.25 18.2344C61.3672 18.2344 60.5664 18.0859 59.8477 17.7891C59.1367 17.4844 58.5234 17.0586 58.0078 16.5117C57.5 15.9648 57.1094 15.3164 56.8359 14.5664C56.5625 13.8164 56.4258 12.9961 56.4258 12.1055V11.6133C56.4258 10.582 56.5781 9.66406 56.8828 8.85938C57.1875 8.04688 57.6016 7.35938 58.125 6.79688C58.6484 6.23438 59.2422 5.80859 59.9062 5.51953C60.5703 5.23047 61.2578 5.08594 61.9688 5.08594C62.875 5.08594 63.6562 5.24219 64.3125 5.55469C64.9766 5.86719 65.5195 6.30469 65.9414 6.86719C66.3633 7.42188 66.6758 8.07812 66.8789 8.83594C67.082 9.58594 67.1836 10.4062 67.1836 11.2969V12.2695H57.7148V10.5H65.0156V10.3359C64.9844 9.77344 64.8672 9.22656 64.6641 8.69531C64.4688 8.16406 64.1562 7.72656 63.7266 7.38281C63.2969 7.03906 62.7109 6.86719 61.9688 6.86719C61.4766 6.86719 61.0234 6.97266 60.6094 7.18359C60.1953 7.38672 59.8398 7.69141 59.543 8.09766C59.2461 8.50391 59.0156 9 58.8516 9.58594C58.6875 10.1719 58.6055 10.8477 58.6055 11.6133V12.1055C58.6055 12.707 58.6875 13.2734 58.8516 13.8047C59.0234 14.3281 59.2695 14.7891 59.5898 15.1875C59.918 15.5859 60.3125 15.8984 60.7734 16.125C61.2422 16.3516 61.7734 16.4648 62.3672 16.4648C63.1328 16.4648 63.7812 16.3086 64.3125 15.9961C64.8438 15.6836 65.3086 15.2656 65.707 14.7422L67.0195 15.7852C66.7461 16.1992 66.3984 16.5938 65.9766 16.9688C65.5547 17.3438 65.0352 17.6484 64.418 17.8828C63.8086 18.1172 63.0859 18.2344 62.25 18.2344ZM71.8828 7.75781V22.875H69.7031V5.32031H71.6953L71.8828 7.75781ZM80.4258 11.5547V11.8008C80.4258 12.7227 80.3164 13.5781 80.0977 14.3672C79.8789 15.1484 79.5586 15.8281 79.1367 16.4062C78.7227 16.9844 78.2109 17.4336 77.6016 17.7539C76.9922 18.0742 76.293 18.2344 75.5039 18.2344C74.6992 18.2344 73.9883 18.1016 73.3711 17.8359C72.7539 17.5703 72.2305 17.1836 71.8008 16.6758C71.3711 16.168 71.0273 15.5586 70.7695 14.8477C70.5195 14.1367 70.3477 13.3359 70.2539 12.4453V11.1328C70.3477 10.1953 70.5234 9.35547 70.7812 8.61328C71.0391 7.87109 71.3789 7.23828 71.8008 6.71484C72.2305 6.18359 72.75 5.78125 73.3594 5.50781C73.9688 5.22656 74.6719 5.08594 75.4688 5.08594C76.2656 5.08594 76.9727 5.24219 77.5898 5.55469C78.207 5.85938 78.7266 6.29688 79.1484 6.86719C79.5703 7.4375 79.8867 8.12109 80.0977 8.91797C80.3164 9.70703 80.4258 10.5859 80.4258 11.5547ZM78.2461 11.8008V11.5547C78.2461 10.9219 78.1797 10.3281 78.0469 9.77344C77.9141 9.21094 77.707 8.71875 77.4258 8.29688C77.1523 7.86719 76.8008 7.53125 76.3711 7.28906C75.9414 7.03906 75.4297 6.91406 74.8359 6.91406C74.2891 6.91406 73.8125 7.00781 73.4062 7.19531C73.0078 7.38281 72.668 7.63672 72.3867 7.95703C72.1055 8.26953 71.875 8.62891 71.6953 9.03516C71.5234 9.43359 71.3945 9.84766 71.3086 10.2773V13.3125C71.4648 13.8594 71.6836 14.375 71.9648 14.8594C72.2461 15.3359 72.6211 15.7227 73.0898 16.0195C73.5586 16.3086 74.1484 16.4531 74.8594 16.4531C75.4453 16.4531 75.9492 16.332 76.3711 16.0898C76.8008 15.8398 77.1523 15.5 77.4258 15.0703C77.707 14.6406 77.9141 14.1484 78.0469 13.5938C78.1797 13.0312 78.2461 12.4336 78.2461 11.8008ZM88.2656 16.4531C88.7812 16.4531 89.2578 16.3477 89.6953 16.1367C90.1328 15.9258 90.4922 15.6367 90.7734 15.2695C91.0547 14.8945 91.2148 14.4688 91.2539 13.9922H93.3164C93.2773 14.7422 93.0234 15.4414 92.5547 16.0898C92.0938 16.7305 91.4883 17.25 90.7383 17.6484C89.9883 18.0391 89.1641 18.2344 88.2656 18.2344C87.3125 18.2344 86.4805 18.0664 85.7695 17.7305C85.0664 17.3945 84.4805 16.9336 84.0117 16.3477C83.5508 15.7617 83.2031 15.0898 82.9688 14.332C82.7422 13.5664 82.6289 12.7578 82.6289 11.9062V11.4141C82.6289 10.5625 82.7422 9.75781 82.9688 9C83.2031 8.23438 83.5508 7.55859 84.0117 6.97266C84.4805 6.38672 85.0664 5.92578 85.7695 5.58984C86.4805 5.25391 87.3125 5.08594 88.2656 5.08594C89.2578 5.08594 90.125 5.28906 90.8672 5.69531C91.6094 6.09375 92.1914 6.64062 92.6133 7.33594C93.043 8.02344 93.2773 8.80469 93.3164 9.67969H91.2539C91.2148 9.15625 91.0664 8.68359 90.8086 8.26172C90.5586 7.83984 90.2148 7.50391 89.7773 7.25391C89.3477 6.99609 88.8438 6.86719 88.2656 6.86719C87.6016 6.86719 87.043 7 86.5898 7.26562C86.1445 7.52344 85.7891 7.875 85.5234 8.32031C85.2656 8.75781 85.0781 9.24609 84.9609 9.78516C84.8516 10.3164 84.7969 10.8594 84.7969 11.4141V11.9062C84.7969 12.4609 84.8516 13.0078 84.9609 13.5469C85.0703 14.0859 85.2539 14.5742 85.5117 15.0117C85.7773 15.4492 86.1328 15.8008 86.5781 16.0664C87.0312 16.3242 87.5938 16.4531 88.2656 16.4531ZM103.23 15.832V9.30469C103.23 8.80469 103.129 8.37109 102.926 8.00391C102.73 7.62891 102.434 7.33984 102.035 7.13672C101.637 6.93359 101.145 6.83203 100.559 6.83203C100.012 6.83203 99.5312 6.92578 99.1172 7.11328C98.7109 7.30078 98.3906 7.54688 98.1562 7.85156C97.9297 8.15625 97.8164 8.48438 97.8164 8.83594H95.6484C95.6484 8.38281 95.7656 7.93359 96 7.48828C96.2344 7.04297 96.5703 6.64062 97.0078 6.28125C97.4531 5.91406 97.9844 5.625 98.6016 5.41406C99.2266 5.19531 99.9219 5.08594 100.688 5.08594C101.609 5.08594 102.422 5.24219 103.125 5.55469C103.836 5.86719 104.391 6.33984 104.789 6.97266C105.195 7.59766 105.398 8.38281 105.398 9.32812V15.2344C105.398 15.6562 105.434 16.1055 105.504 16.582C105.582 17.0586 105.695 17.4688 105.844 17.8125V18H103.582C103.473 17.75 103.387 17.418 103.324 17.0039C103.262 16.582 103.23 16.1914 103.23 15.832ZM103.605 10.3125L103.629 11.8359H101.438C100.82 11.8359 100.27 11.8867 99.7852 11.9883C99.3008 12.082 98.8945 12.2266 98.5664 12.4219C98.2383 12.6172 97.9883 12.8633 97.8164 13.1602C97.6445 13.4492 97.5586 13.7891 97.5586 14.1797C97.5586 14.5781 97.6484 14.9414 97.8281 15.2695C98.0078 15.5977 98.2773 15.8594 98.6367 16.0547C99.0039 16.2422 99.4531 16.3359 99.9844 16.3359C100.648 16.3359 101.234 16.1953 101.742 15.9141C102.25 15.6328 102.652 15.2891 102.949 14.8828C103.254 14.4766 103.418 14.082 103.441 13.6992L104.367 14.7422C104.312 15.0703 104.164 15.4336 103.922 15.832C103.68 16.2305 103.355 16.6133 102.949 16.9805C102.551 17.3398 102.074 17.6406 101.52 17.8828C100.973 18.1172 100.355 18.2344 99.668 18.2344C98.8086 18.2344 98.0547 18.0664 97.4062 17.7305C96.7656 17.3945 96.2656 16.9453 95.9062 16.3828C95.5547 15.8125 95.3789 15.1758 95.3789 14.4727C95.3789 13.793 95.5117 13.1953 95.7773 12.6797C96.043 12.1562 96.4258 11.7227 96.9258 11.3789C97.4258 11.0273 98.0273 10.7617 98.7305 10.582C99.4336 10.4023 100.219 10.3125 101.086 10.3125H103.605ZM117.281 5.32031V7.11328H111.152V5.32031H117.281ZM119.191 5.32031V18H117.023V5.32031H119.191ZM110.625 5.32031H112.805L112.477 11.4375C112.422 12.3828 112.332 13.2188 112.207 13.9453C112.09 14.6641 111.926 15.2812 111.715 15.7969C111.512 16.3125 111.254 16.7344 110.941 17.0625C110.637 17.3828 110.27 17.6211 109.84 17.7773C109.41 17.9258 108.914 18 108.352 18H107.672V16.0898L108.141 16.0547C108.477 16.0312 108.762 15.9531 108.996 15.8203C109.238 15.6875 109.441 15.4922 109.605 15.2344C109.77 14.9688 109.902 14.6289 110.004 14.2148C110.113 13.8008 110.195 13.3086 110.25 12.7383C110.312 12.168 110.359 11.5039 110.391 10.7461L110.625 5.32031ZM124.465 9.67969H128.273C129.297 9.67969 130.16 9.85938 130.863 10.2188C131.566 10.5703 132.098 11.0586 132.457 11.6836C132.824 12.3008 133.008 13.0039 133.008 13.793C133.008 14.3789 132.906 14.9297 132.703 15.4453C132.5 15.9531 132.195 16.3984 131.789 16.7812C131.391 17.1641 130.895 17.4648 130.301 17.6836C129.715 17.8945 129.039 18 128.273 18H122.883V5.32031H125.051V16.2188H128.273C128.898 16.2188 129.398 16.1055 129.773 15.8789C130.148 15.6523 130.418 15.3594 130.582 15C130.746 14.6406 130.828 14.2656 130.828 13.875C130.828 13.4922 130.746 13.1172 130.582 12.75C130.418 12.3828 130.148 12.0781 129.773 11.8359C129.398 11.5859 128.898 11.4609 128.273 11.4609H124.465V9.67969ZM144.316 10.8164V12.5742H137.613V10.8164H144.316ZM138.07 5.32031V18H135.902V5.32031H138.07ZM146.074 5.32031V18H143.895V5.32031H146.074ZM157.043 15.832V9.30469C157.043 8.80469 156.941 8.37109 156.738 8.00391C156.543 7.62891 156.246 7.33984 155.848 7.13672C155.449 6.93359 154.957 6.83203 154.371 6.83203C153.824 6.83203 153.344 6.92578 152.93 7.11328C152.523 7.30078 152.203 7.54688 151.969 7.85156C151.742 8.15625 151.629 8.48438 151.629 8.83594H149.461C149.461 8.38281 149.578 7.93359 149.812 7.48828C150.047 7.04297 150.383 6.64062 150.82 6.28125C151.266 5.91406 151.797 5.625 152.414 5.41406C153.039 5.19531 153.734 5.08594 154.5 5.08594C155.422 5.08594 156.234 5.24219 156.938 5.55469C157.648 5.86719 158.203 6.33984 158.602 6.97266C159.008 7.59766 159.211 8.38281 159.211 9.32812V15.2344C159.211 15.6562 159.246 16.1055 159.316 16.582C159.395 17.0586 159.508 17.4688 159.656 17.8125V18H157.395C157.285 17.75 157.199 17.418 157.137 17.0039C157.074 16.582 157.043 16.1914 157.043 15.832ZM157.418 10.3125L157.441 11.8359H155.25C154.633 11.8359 154.082 11.8867 153.598 11.9883C153.113 12.082 152.707 12.2266 152.379 12.4219C152.051 12.6172 151.801 12.8633 151.629 13.1602C151.457 13.4492 151.371 13.7891 151.371 14.1797C151.371 14.5781 151.461 14.9414 151.641 15.2695C151.82 15.5977 152.09 15.8594 152.449 16.0547C152.816 16.2422 153.266 16.3359 153.797 16.3359C154.461 16.3359 155.047 16.1953 155.555 15.9141C156.062 15.6328 156.465 15.2891 156.762 14.8828C157.066 14.4766 157.23 14.082 157.254 13.6992L158.18 14.7422C158.125 15.0703 157.977 15.4336 157.734 15.832C157.492 16.2305 157.168 16.6133 156.762 16.9805C156.363 17.3398 155.887 17.6406 155.332 17.8828C154.785 18.1172 154.168 18.2344 153.48 18.2344C152.621 18.2344 151.867 18.0664 151.219 17.7305C150.578 17.3945 150.078 16.9453 149.719 16.3828C149.367 15.8125 149.191 15.1758 149.191 14.4727C149.191 13.793 149.324 13.1953 149.59 12.6797C149.855 12.1562 150.238 11.7227 150.738 11.3789C151.238 11.0273 151.84 10.7617 152.543 10.582C153.246 10.4023 154.031 10.3125 154.898 10.3125H157.418ZM165.188 11.9531H167.531L163.863 18H161.52L165.188 11.9531ZM167.004 5.32031H172.301V18H170.133V7.07812H167.004C166.387 7.07812 165.883 7.18359 165.492 7.39453C165.102 7.59766 164.816 7.86328 164.637 8.19141C164.457 8.51953 164.367 8.85938 164.367 9.21094C164.367 9.55469 164.449 9.88672 164.613 10.207C164.777 10.5195 165.035 10.7773 165.387 10.9805C165.738 11.1836 166.191 11.2852 166.746 11.2852H170.719V13.0664H166.746C166.02 13.0664 165.375 12.9688 164.812 12.7734C164.25 12.5781 163.773 12.3086 163.383 11.9648C162.992 11.6133 162.695 11.2031 162.492 10.7344C162.289 10.2578 162.188 9.74219 162.188 9.1875C162.188 8.63281 162.293 8.12109 162.504 7.65234C162.723 7.18359 163.035 6.77344 163.441 6.42188C163.855 6.07031 164.359 5.80078 164.953 5.61328C165.555 5.41797 166.238 5.32031 167.004 5.32031ZM184.102 5.32031V18H181.934V5.32031H184.102ZM192.422 5.32031L186.41 12.5859H183.375L183.047 10.6875H185.531L189.785 5.32031H192.422ZM190.09 18L185.426 12.2578L186.82 10.6875L192.844 18H190.09ZM196.898 7.75781V22.875H194.719V5.32031H196.711L196.898 7.75781ZM205.441 11.5547V11.8008C205.441 12.7227 205.332 13.5781 205.113 14.3672C204.895 15.1484 204.574 15.8281 204.152 16.4062C203.738 16.9844 203.227 17.4336 202.617 17.7539C202.008 18.0742 201.309 18.2344 200.52 18.2344C199.715 18.2344 199.004 18.1016 198.387 17.8359C197.77 17.5703 197.246 17.1836 196.816 16.6758C196.387 16.168 196.043 15.5586 195.785 14.8477C195.535 14.1367 195.363 13.3359 195.27 12.4453V11.1328C195.363 10.1953 195.539 9.35547 195.797 8.61328C196.055 7.87109 196.395 7.23828 196.816 6.71484C197.246 6.18359 197.766 5.78125 198.375 5.50781C198.984 5.22656 199.688 5.08594 200.484 5.08594C201.281 5.08594 201.988 5.24219 202.605 5.55469C203.223 5.85938 203.742 6.29688 204.164 6.86719C204.586 7.4375 204.902 8.12109 205.113 8.91797C205.332 9.70703 205.441 10.5859 205.441 11.5547ZM203.262 11.8008V11.5547C203.262 10.9219 203.195 10.3281 203.062 9.77344C202.93 9.21094 202.723 8.71875 202.441 8.29688C202.168 7.86719 201.816 7.53125 201.387 7.28906C200.957 7.03906 200.445 6.91406 199.852 6.91406C199.305 6.91406 198.828 7.00781 198.422 7.19531C198.023 7.38281 197.684 7.63672 197.402 7.95703C197.121 8.26953 196.891 8.62891 196.711 9.03516C196.539 9.43359 196.41 9.84766 196.324 10.2773V13.3125C196.48 13.8594 196.699 14.375 196.98 14.8594C197.262 15.3359 197.637 15.7227 198.105 16.0195C198.574 16.3086 199.164 16.4531 199.875 16.4531C200.461 16.4531 200.965 16.332 201.387 16.0898C201.816 15.8398 202.168 15.5 202.441 15.0703C202.723 14.6406 202.93 14.1484 203.062 13.5938C203.195 13.0312 203.262 12.4336 203.262 11.8008ZM215.684 15.832V9.30469C215.684 8.80469 215.582 8.37109 215.379 8.00391C215.184 7.62891 214.887 7.33984 214.488 7.13672C214.09 6.93359 213.598 6.83203 213.012 6.83203C212.465 6.83203 211.984 6.92578 211.57 7.11328C211.164 7.30078 210.844 7.54688 210.609 7.85156C210.383 8.15625 210.27 8.48438 210.27 8.83594H208.102C208.102 8.38281 208.219 7.93359 208.453 7.48828C208.688 7.04297 209.023 6.64062 209.461 6.28125C209.906 5.91406 210.438 5.625 211.055 5.41406C211.68 5.19531 212.375 5.08594 213.141 5.08594C214.062 5.08594 214.875 5.24219 215.578 5.55469C216.289 5.86719 216.844 6.33984 217.242 6.97266C217.648 7.59766 217.852 8.38281 217.852 9.32812V15.2344C217.852 15.6562 217.887 16.1055 217.957 16.582C218.035 17.0586 218.148 17.4688 218.297 17.8125V18H216.035C215.926 17.75 215.84 17.418 215.777 17.0039C215.715 16.582 215.684 16.1914 215.684 15.832ZM216.059 10.3125L216.082 11.8359H213.891C213.273 11.8359 212.723 11.8867 212.238 11.9883C211.754 12.082 211.348 12.2266 211.02 12.4219C210.691 12.6172 210.441 12.8633 210.27 13.1602C210.098 13.4492 210.012 13.7891 210.012 14.1797C210.012 14.5781 210.102 14.9414 210.281 15.2695C210.461 15.5977 210.73 15.8594 211.09 16.0547C211.457 16.2422 211.906 16.3359 212.438 16.3359C213.102 16.3359 213.688 16.1953 214.195 15.9141C214.703 15.6328 215.105 15.2891 215.402 14.8828C215.707 14.4766 215.871 14.082 215.895 13.6992L216.82 14.7422C216.766 15.0703 216.617 15.4336 216.375 15.832C216.133 16.2305 215.809 16.6133 215.402 16.9805C215.004 17.3398 214.527 17.6406 213.973 17.8828C213.426 18.1172 212.809 18.2344 212.121 18.2344C211.262 18.2344 210.508 18.0664 209.859 17.7305C209.219 17.3945 208.719 16.9453 208.359 16.3828C208.008 15.8125 207.832 15.1758 207.832 14.4727C207.832 13.793 207.965 13.1953 208.23 12.6797C208.496 12.1562 208.879 11.7227 209.379 11.3789C209.879 11.0273 210.48 10.7617 211.184 10.582C211.887 10.4023 212.672 10.3125 213.539 10.3125H216.059ZM226.336 16.4531C226.852 16.4531 227.328 16.3477 227.766 16.1367C228.203 15.9258 228.562 15.6367 228.844 15.2695C229.125 14.8945 229.285 14.4688 229.324 13.9922H231.387C231.348 14.7422 231.094 15.4414 230.625 16.0898C230.164 16.7305 229.559 17.25 228.809 17.6484C228.059 18.0391 227.234 18.2344 226.336 18.2344C225.383 18.2344 224.551 18.0664 223.84 17.7305C223.137 17.3945 222.551 16.9336 222.082 16.3477C221.621 15.7617 221.273 15.0898 221.039 14.332C220.812 13.5664 220.699 12.7578 220.699 11.9062V11.4141C220.699 10.5625 220.812 9.75781 221.039 9C221.273 8.23438 221.621 7.55859 222.082 6.97266C222.551 6.38672 223.137 5.92578 223.84 5.58984C224.551 5.25391 225.383 5.08594 226.336 5.08594C227.328 5.08594 228.195 5.28906 228.938 5.69531C229.68 6.09375 230.262 6.64062 230.684 7.33594C231.113 8.02344 231.348 8.80469 231.387 9.67969H229.324C229.285 9.15625 229.137 8.68359 228.879 8.26172C228.629 7.83984 228.285 7.50391 227.848 7.25391C227.418 6.99609 226.914 6.86719 226.336 6.86719C225.672 6.86719 225.113 7 224.66 7.26562C224.215 7.52344 223.859 7.875 223.594 8.32031C223.336 8.75781 223.148 9.24609 223.031 9.78516C222.922 10.3164 222.867 10.8594 222.867 11.4141V11.9062C222.867 12.4609 222.922 13.0078 223.031 13.5469C223.141 14.0859 223.324 14.5742 223.582 15.0117C223.848 15.4492 224.203 15.8008 224.648 16.0664C225.102 16.3242 225.664 16.4531 226.336 16.4531ZM236.18 5.32031V18H234.012V5.32031H236.18ZM244.5 5.32031L238.488 12.5859H235.453L235.125 10.6875H237.609L241.863 5.32031H244.5ZM242.168 18L237.504 12.2578L238.898 10.6875L244.922 18H242.168ZM254.285 15.832V9.30469C254.285 8.80469 254.184 8.37109 253.98 8.00391C253.785 7.62891 253.488 7.33984 253.09 7.13672C252.691 6.93359 252.199 6.83203 251.613 6.83203C251.066 6.83203 250.586 6.92578 250.172 7.11328C249.766 7.30078 249.445 7.54688 249.211 7.85156C248.984 8.15625 248.871 8.48438 248.871 8.83594H246.703C246.703 8.38281 246.82 7.93359 247.055 7.48828C247.289 7.04297 247.625 6.64062 248.062 6.28125C248.508 5.91406 249.039 5.625 249.656 5.41406C250.281 5.19531 250.977 5.08594 251.742 5.08594C252.664 5.08594 253.477 5.24219 254.18 5.55469C254.891 5.86719 255.445 6.33984 255.844 6.97266C256.25 7.59766 256.453 8.38281 256.453 9.32812V15.2344C256.453 15.6562 256.488 16.1055 256.559 16.582C256.637 17.0586 256.75 17.4688 256.898 17.8125V18H254.637C254.527 17.75 254.441 17.418 254.379 17.0039C254.316 16.582 254.285 16.1914 254.285 15.832ZM254.66 10.3125L254.684 11.8359H252.492C251.875 11.8359 251.324 11.8867 250.84 11.9883C250.355 12.082 249.949 12.2266 249.621 12.4219C249.293 12.6172 249.043 12.8633 248.871 13.1602C248.699 13.4492 248.613 13.7891 248.613 14.1797C248.613 14.5781 248.703 14.9414 248.883 15.2695C249.062 15.5977 249.332 15.8594 249.691 16.0547C250.059 16.2422 250.508 16.3359 251.039 16.3359C251.703 16.3359 252.289 16.1953 252.797 15.9141C253.305 15.6328 253.707 15.2891 254.004 14.8828C254.309 14.4766 254.473 14.082 254.496 13.6992L255.422 14.7422C255.367 15.0703 255.219 15.4336 254.977 15.832C254.734 16.2305 254.41 16.6133 254.004 16.9805C253.605 17.3398 253.129 17.6406 252.574 17.8828C252.027 18.1172 251.41 18.2344 250.723 18.2344C249.863 18.2344 249.109 18.0664 248.461 17.7305C247.82 17.3945 247.32 16.9453 246.961 16.3828C246.609 15.8125 246.434 15.1758 246.434 14.4727C246.434 13.793 246.566 13.1953 246.832 12.6797C247.098 12.1562 247.48 11.7227 247.98 11.3789C248.48 11.0273 249.082 10.7617 249.785 10.582C250.488 10.4023 251.273 10.3125 252.141 10.3125H254.66ZM3.9375 33.3203H6.10547L5.91797 38.0664C5.87109 39.2695 5.73438 40.3086 5.50781 41.1836C5.28125 42.0586 4.99219 42.8047 4.64062 43.4219C4.28906 44.0312 3.89453 44.543 3.45703 44.957C3.02734 45.3711 2.58203 45.7188 2.12109 46H1.04297L1.10156 44.2305L1.54688 44.2188C1.80469 43.9141 2.05469 43.6016 2.29688 43.2812C2.53906 42.9531 2.76172 42.5664 2.96484 42.1211C3.16797 41.668 3.33594 41.1172 3.46875 40.4688C3.60938 39.8125 3.69922 39.0117 3.73828 38.0664L3.9375 33.3203ZM4.47656 33.3203H12.1055V46H9.9375V35.3242H4.47656V33.3203ZM0.550781 44.2188H13.7344V49.7383H11.5664V46H2.71875V49.7383H0.539062L0.550781 44.2188ZM24.6094 33.3203V35.1133H18.4805V33.3203H24.6094ZM26.5195 33.3203V46H24.3516V33.3203H26.5195ZM17.9531 33.3203H20.1328L19.8047 39.4375C19.75 40.3828 19.6602 41.2188 19.5352 41.9453C19.418 42.6641 19.2539 43.2812 19.043 43.7969C18.8398 44.3125 18.582 44.7344 18.2695 45.0625C17.9648 45.3828 17.5977 45.6211 17.168 45.7773C16.7383 45.9258 16.2422 46 15.6797 46H15V44.0898L15.4688 44.0547C15.8047 44.0312 16.0898 43.9531 16.3242 43.8203C16.5664 43.6875 16.7695 43.4922 16.9336 43.2344C17.0977 42.9688 17.2305 42.6289 17.332 42.2148C17.4414 41.8008 17.5234 41.3086 17.5781 40.7383C17.6406 40.168 17.6875 39.5039 17.7188 38.7461L17.9531 33.3203ZM32.5781 39.9531H34.9219L31.2539 46H28.9102L32.5781 39.9531ZM34.3945 33.3203H39.6914V46H37.5234V35.0781H34.3945C33.7773 35.0781 33.2734 35.1836 32.8828 35.3945C32.4922 35.5977 32.207 35.8633 32.0273 36.1914C31.8477 36.5195 31.7578 36.8594 31.7578 37.2109C31.7578 37.5547 31.8398 37.8867 32.0039 38.207C32.168 38.5195 32.4258 38.7773 32.7773 38.9805C33.1289 39.1836 33.582 39.2852 34.1367 39.2852H38.1094V41.0664H34.1367C33.4102 41.0664 32.7656 40.9688 32.2031 40.7734C31.6406 40.5781 31.1641 40.3086 30.7734 39.9648C30.3828 39.6133 30.0859 39.2031 29.8828 38.7344C29.6797 38.2578 29.5781 37.7422 29.5781 37.1875C29.5781 36.6328 29.6836 36.1211 29.8945 35.6523C30.1133 35.1836 30.4258 34.7734 30.832 34.4219C31.2461 34.0703 31.75 33.8008 32.3438 33.6133C32.9453 33.418 33.6289 33.3203 34.3945 33.3203ZM57.6094 33.3203V35.1133H51.4805V33.3203H57.6094ZM59.5195 33.3203V46H57.3516V33.3203H59.5195ZM50.9531 33.3203H53.1328L52.8047 39.4375C52.75 40.3828 52.6602 41.2188 52.5352 41.9453C52.418 42.6641 52.2539 43.2812 52.043 43.7969C51.8398 44.3125 51.582 44.7344 51.2695 45.0625C50.9648 45.3828 50.5977 45.6211 50.168 45.7773C49.7383 45.9258 49.2422 46 48.6797 46H48V44.0898L48.4688 44.0547C48.8047 44.0312 49.0898 43.9531 49.3242 43.8203C49.5664 43.6875 49.7695 43.4922 49.9336 43.2344C50.0977 42.9688 50.2305 42.6289 50.332 42.2148C50.4414 41.8008 50.5234 41.3086 50.5781 40.7383C50.6406 40.168 50.6875 39.5039 50.7188 38.7461L50.9531 33.3203ZM70.2305 38.6992V40.4688H63.4922V38.6992H70.2305ZM65.3789 33.3203V46H63.2109V33.3203H65.3789ZM68.3789 39.8008V39.5312C68.3789 38.6172 68.5117 37.7695 68.7773 36.9883C69.043 36.1992 69.4258 35.5156 69.9258 34.9375C70.4336 34.3516 71.0391 33.8984 71.7422 33.5781C72.4531 33.25 73.25 33.0859 74.1328 33.0859C75.0312 33.0859 75.8359 33.25 76.5469 33.5781C77.2578 33.8984 77.8633 34.3516 78.3633 34.9375C78.8711 35.5156 79.2578 36.1992 79.5234 36.9883C79.7891 37.7695 79.9219 38.6172 79.9219 39.5312V39.8008C79.9219 40.7148 79.7891 41.5625 79.5234 42.3438C79.2578 43.125 78.875 43.8086 78.375 44.3945C77.875 44.9727 77.2695 45.4258 76.5586 45.7539C75.8477 46.0742 75.0469 46.2344 74.1562 46.2344C73.2656 46.2344 72.4648 46.0742 71.7539 45.7539C71.043 45.4258 70.4336 44.9727 69.9258 44.3945C69.4258 43.8086 69.043 43.125 68.7773 42.3438C68.5117 41.5625 68.3789 40.7148 68.3789 39.8008ZM70.5586 39.5312V39.8008C70.5586 40.4336 70.6328 41.0312 70.7812 41.5938C70.9297 42.1484 71.1523 42.6406 71.4492 43.0703C71.7539 43.5 72.1289 43.8398 72.5742 44.0898C73.0273 44.332 73.5547 44.4531 74.1562 44.4531C74.7578 44.4531 75.2812 44.332 75.7266 44.0898C76.1797 43.8398 76.5547 43.5 76.8516 43.0703C77.1484 42.6406 77.3711 42.1484 77.5195 41.5938C77.6758 41.0312 77.7539 40.4336 77.7539 39.8008V39.5312C77.7539 38.9062 77.6758 38.3164 77.5195 37.7617C77.3711 37.1992 77.1445 36.7031 76.8398 36.2734C76.543 35.8359 76.168 35.4922 75.7148 35.2422C75.2617 34.9922 74.7344 34.8672 74.1328 34.8672C73.5391 34.8672 73.0195 34.9922 72.5742 35.2422C72.1289 35.4922 71.7539 35.8359 71.4492 36.2734C71.1523 36.7031 70.9297 37.1992 70.7812 37.7617C70.6328 38.3164 70.5586 38.9062 70.5586 39.5312ZM90.7383 27.8008H92.5195C92.5195 28.5664 92.4023 29.1758 92.168 29.6289C91.9336 30.0742 91.6133 30.418 91.207 30.6602C90.8086 30.9023 90.3555 31.0859 89.8477 31.2109C89.3477 31.3359 88.8281 31.457 88.2891 31.5742C87.6172 31.7148 86.9922 31.9375 86.4141 32.2422C85.8438 32.5391 85.3516 32.9609 84.9375 33.5078C84.5312 34.0547 84.2305 34.7656 84.0352 35.6406C83.8477 36.5156 83.7969 37.5977 83.8828 38.8867V39.9648H82.1016V38.8867C82.1016 37.4414 82.2383 36.1797 82.5117 35.1016C82.793 34.0234 83.1875 33.1133 83.6953 32.3711C84.2031 31.6289 84.8047 31.0391 85.5 30.6016C86.2031 30.1641 86.9766 29.8633 87.8203 29.6992C88.4297 29.582 88.9531 29.457 89.3906 29.3242C89.8281 29.1836 90.1602 28.9961 90.3867 28.7617C90.6211 28.5273 90.7383 28.207 90.7383 27.8008ZM88.1719 34.0469C89 34.0469 89.7383 34.1914 90.3867 34.4805C91.0352 34.7695 91.5859 35.1719 92.0391 35.6875C92.4922 36.2031 92.8359 36.8125 93.0703 37.5156C93.3125 38.2109 93.4336 38.9688 93.4336 39.7891V40.0469C93.4336 40.9297 93.3047 41.75 93.0469 42.5078C92.7969 43.2578 92.4258 43.9141 91.9336 44.4766C91.4492 45.0312 90.8555 45.4648 90.1523 45.7773C89.457 46.0898 88.6641 46.2461 87.7734 46.2461C86.8828 46.2461 86.0859 46.0898 85.3828 45.7773C84.6875 45.4648 84.0938 45.0312 83.6016 44.4766C83.1094 43.9141 82.7344 43.2578 82.4766 42.5078C82.2266 41.75 82.1016 40.9297 82.1016 40.0469V39.7891C82.1016 39.5938 82.1367 39.4023 82.207 39.2148C82.2773 39.0273 82.3633 38.8359 82.4648 38.6406C82.5742 38.4453 82.6719 38.2383 82.7578 38.0195C83.0469 37.3164 83.4414 36.6641 83.9414 36.0625C84.4492 35.4609 85.0547 34.9766 85.7578 34.6094C86.4688 34.2344 87.2734 34.0469 88.1719 34.0469ZM87.75 35.8164C86.9531 35.8164 86.2969 36 85.7812 36.3672C85.2734 36.7344 84.8945 37.2227 84.6445 37.832C84.3945 38.4336 84.2695 39.0859 84.2695 39.7891V40.0469C84.2695 40.6406 84.3398 41.2031 84.4805 41.7344C84.6211 42.2656 84.832 42.7383 85.1133 43.1523C85.4023 43.5586 85.7656 43.8789 86.2031 44.1133C86.6484 44.3477 87.1719 44.4648 87.7734 44.4648C88.375 44.4648 88.8945 44.3477 89.332 44.1133C89.7695 43.8789 90.1289 43.5586 90.4102 43.1523C90.6914 42.7383 90.9023 42.2656 91.043 41.7344C91.1836 41.2031 91.2539 40.6406 91.2539 40.0469V39.7891C91.2539 39.2578 91.1836 38.7539 91.043 38.2773C90.9023 37.8008 90.6875 37.3789 90.3984 37.0117C90.1172 36.6445 89.7539 36.3555 89.3086 36.1445C88.8711 35.9258 88.3516 35.8164 87.75 35.8164ZM97.6758 37.6797H101.484C102.508 37.6797 103.371 37.8594 104.074 38.2188C104.777 38.5703 105.309 39.0586 105.668 39.6836C106.035 40.3008 106.219 41.0039 106.219 41.793C106.219 42.3789 106.117 42.9297 105.914 43.4453C105.711 43.9531 105.406 44.3984 105 44.7812C104.602 45.1641 104.105 45.4648 103.512 45.6836C102.926 45.8945 102.25 46 101.484 46H96.0938V33.3203H98.2617V44.2188H101.484C102.109 44.2188 102.609 44.1055 102.984 43.8789C103.359 43.6523 103.629 43.3594 103.793 43C103.957 42.6406 104.039 42.2656 104.039 41.875C104.039 41.4922 103.957 41.1172 103.793 40.75C103.629 40.3828 103.359 40.0781 102.984 39.8359C102.609 39.5859 102.109 39.4609 101.484 39.4609H97.6758V37.6797ZM110.73 33.3203V46H108.562V33.3203H110.73ZM115.992 33.3203L118.77 37.9375L121.582 33.3203H124.125L119.977 39.5781L124.254 46H121.746L118.816 41.2422L115.887 46H113.367L117.633 39.5781L113.496 33.3203H115.992ZM137.121 39.9414H134.789V38.6055H136.945C137.547 38.6055 138.023 38.5312 138.375 38.3828C138.727 38.2266 138.977 38.0117 139.125 37.7383C139.273 37.4648 139.348 37.1445 139.348 36.7773C139.348 36.4492 139.262 36.1406 139.09 35.8516C138.926 35.5547 138.66 35.3164 138.293 35.1367C137.926 34.9492 137.434 34.8555 136.816 34.8555C136.316 34.8555 135.863 34.9453 135.457 35.125C135.051 35.2969 134.727 35.5352 134.484 35.8398C134.25 36.1367 134.133 36.4727 134.133 36.8477H131.965C131.965 36.0742 132.184 35.4102 132.621 34.8555C133.066 34.293 133.656 33.8594 134.391 33.5547C135.133 33.25 135.941 33.0977 136.816 33.0977C137.551 33.0977 138.207 33.1797 138.785 33.3438C139.371 33.5 139.867 33.7344 140.273 34.0469C140.68 34.3516 140.988 34.7344 141.199 35.1953C141.418 35.6484 141.527 36.1758 141.527 36.7773C141.527 37.207 141.426 37.6133 141.223 37.9961C141.02 38.3789 140.727 38.7188 140.344 39.0156C139.961 39.3047 139.496 39.5312 138.949 39.6953C138.41 39.8594 137.801 39.9414 137.121 39.9414ZM134.789 39.1211H137.121C137.879 39.1211 138.547 39.1953 139.125 39.3438C139.703 39.4844 140.188 39.6953 140.578 39.9766C140.969 40.2578 141.262 40.6055 141.457 41.0195C141.66 41.4258 141.762 41.8945 141.762 42.4258C141.762 43.0195 141.641 43.5547 141.398 44.0312C141.164 44.5 140.828 44.8984 140.391 45.2266C139.953 45.5547 139.43 45.8047 138.82 45.9766C138.219 46.1484 137.551 46.2344 136.816 46.2344C135.996 46.2344 135.199 46.0938 134.426 45.8125C133.652 45.5312 133.016 45.0977 132.516 44.5117C132.016 43.918 131.766 43.1641 131.766 42.25H133.934C133.934 42.6328 134.055 42.9961 134.297 43.3398C134.539 43.6836 134.875 43.9609 135.305 44.1719C135.742 44.3828 136.246 44.4883 136.816 44.4883C137.426 44.4883 137.934 44.3945 138.34 44.207C138.746 44.0195 139.051 43.7695 139.254 43.457C139.465 43.1445 139.57 42.8047 139.57 42.4375C139.57 41.9609 139.477 41.5781 139.289 41.2891C139.102 41 138.812 40.7891 138.422 40.6562C138.039 40.5156 137.547 40.4453 136.945 40.4453H134.789V39.1211ZM152.051 43.832V37.3047C152.051 36.8047 151.949 36.3711 151.746 36.0039C151.551 35.6289 151.254 35.3398 150.855 35.1367C150.457 34.9336 149.965 34.832 149.379 34.832C148.832 34.832 148.352 34.9258 147.938 35.1133C147.531 35.3008 147.211 35.5469 146.977 35.8516C146.75 36.1562 146.637 36.4844 146.637 36.8359H144.469C144.469 36.3828 144.586 35.9336 144.82 35.4883C145.055 35.043 145.391 34.6406 145.828 34.2812C146.273 33.9141 146.805 33.625 147.422 33.4141C148.047 33.1953 148.742 33.0859 149.508 33.0859C150.43 33.0859 151.242 33.2422 151.945 33.5547C152.656 33.8672 153.211 34.3398 153.609 34.9727C154.016 35.5977 154.219 36.3828 154.219 37.3281V43.2344C154.219 43.6562 154.254 44.1055 154.324 44.582C154.402 45.0586 154.516 45.4688 154.664 45.8125V46H152.402C152.293 45.75 152.207 45.418 152.145 45.0039C152.082 44.582 152.051 44.1914 152.051 43.832ZM152.426 38.3125L152.449 39.8359H150.258C149.641 39.8359 149.09 39.8867 148.605 39.9883C148.121 40.082 147.715 40.2266 147.387 40.4219C147.059 40.6172 146.809 40.8633 146.637 41.1602C146.465 41.4492 146.379 41.7891 146.379 42.1797C146.379 42.5781 146.469 42.9414 146.648 43.2695C146.828 43.5977 147.098 43.8594 147.457 44.0547C147.824 44.2422 148.273 44.3359 148.805 44.3359C149.469 44.3359 150.055 44.1953 150.562 43.9141C151.07 43.6328 151.473 43.2891 151.77 42.8828C152.074 42.4766 152.238 42.082 152.262 41.6992L153.188 42.7422C153.133 43.0703 152.984 43.4336 152.742 43.832C152.5 44.2305 152.176 44.6133 151.77 44.9805C151.371 45.3398 150.895 45.6406 150.34 45.8828C149.793 46.1172 149.176 46.2344 148.488 46.2344C147.629 46.2344 146.875 46.0664 146.227 45.7305C145.586 45.3945 145.086 44.9453 144.727 44.3828C144.375 43.8125 144.199 43.1758 144.199 42.4727C144.199 41.793 144.332 41.1953 144.598 40.6797C144.863 40.1562 145.246 39.7227 145.746 39.3789C146.246 39.0273 146.848 38.7617 147.551 38.582C148.254 38.4023 149.039 38.3125 149.906 38.3125H152.426ZM159.914 33.3203H162.082L161.895 38.0664C161.848 39.2695 161.711 40.3086 161.484 41.1836C161.258 42.0586 160.969 42.8047 160.617 43.4219C160.266 44.0312 159.871 44.543 159.434 44.957C159.004 45.3711 158.559 45.7188 158.098 46H157.02L157.078 44.2305L157.523 44.2188C157.781 43.9141 158.031 43.6016 158.273 43.2812C158.516 42.9531 158.738 42.5664 158.941 42.1211C159.145 41.668 159.312 41.1172 159.445 40.4688C159.586 39.8125 159.676 39.0117 159.715 38.0664L159.914 33.3203ZM160.453 33.3203H168.082V46H165.914V35.3242H160.453V33.3203ZM156.527 44.2188H169.711V49.7383H167.543V46H158.695V49.7383H156.516L156.527 44.2188ZM179.59 43.832V37.3047C179.59 36.8047 179.488 36.3711 179.285 36.0039C179.09 35.6289 178.793 35.3398 178.395 35.1367C177.996 34.9336 177.504 34.832 176.918 34.832C176.371 34.832 175.891 34.9258 175.477 35.1133C175.07 35.3008 174.75 35.5469 174.516 35.8516C174.289 36.1562 174.176 36.4844 174.176 36.8359H172.008C172.008 36.3828 172.125 35.9336 172.359 35.4883C172.594 35.043 172.93 34.6406 173.367 34.2812C173.812 33.9141 174.344 33.625 174.961 33.4141C175.586 33.1953 176.281 33.0859 177.047 33.0859C177.969 33.0859 178.781 33.2422 179.484 33.5547C180.195 33.8672 180.75 34.3398 181.148 34.9727C181.555 35.5977 181.758 36.3828 181.758 37.3281V43.2344C181.758 43.6562 181.793 44.1055 181.863 44.582C181.941 45.0586 182.055 45.4688 182.203 45.8125V46H179.941C179.832 45.75 179.746 45.418 179.684 45.0039C179.621 44.582 179.59 44.1914 179.59 43.832ZM179.965 38.3125L179.988 39.8359H177.797C177.18 39.8359 176.629 39.8867 176.145 39.9883C175.66 40.082 175.254 40.2266 174.926 40.4219C174.598 40.6172 174.348 40.8633 174.176 41.1602C174.004 41.4492 173.918 41.7891 173.918 42.1797C173.918 42.5781 174.008 42.9414 174.188 43.2695C174.367 43.5977 174.637 43.8594 174.996 44.0547C175.363 44.2422 175.812 44.3359 176.344 44.3359C177.008 44.3359 177.594 44.1953 178.102 43.9141C178.609 43.6328 179.012 43.2891 179.309 42.8828C179.613 42.4766 179.777 42.082 179.801 41.6992L180.727 42.7422C180.672 43.0703 180.523 43.4336 180.281 43.832C180.039 44.2305 179.715 44.6133 179.309 44.9805C178.91 45.3398 178.434 45.6406 177.879 45.8828C177.332 46.1172 176.715 46.2344 176.027 46.2344C175.168 46.2344 174.414 46.0664 173.766 45.7305C173.125 45.3945 172.625 44.9453 172.266 44.3828C171.914 43.8125 171.738 43.1758 171.738 42.4727C171.738 41.793 171.871 41.1953 172.137 40.6797C172.402 40.1562 172.785 39.7227 173.285 39.3789C173.785 39.0273 174.387 38.7617 175.09 38.582C175.793 38.4023 176.578 38.3125 177.445 38.3125H179.965ZM194.73 33.3203V46H192.562V33.3203H194.73ZM193.992 39.1445V40.9258C193.555 41.0898 193.109 41.2383 192.656 41.3711C192.211 41.4961 191.738 41.5977 191.238 41.6758C190.746 41.7461 190.211 41.7812 189.633 41.7812C188.633 41.7812 187.766 41.6094 187.031 41.2656C186.297 40.9141 185.73 40.3867 185.332 39.6836C184.934 38.9727 184.734 38.0781 184.734 37V33.2969H186.902V37C186.902 37.7031 187.008 38.2734 187.219 38.7109C187.43 39.1484 187.738 39.4727 188.145 39.6836C188.551 39.8867 189.047 39.9883 189.633 39.9883C190.195 39.9883 190.723 39.9531 191.215 39.8828C191.715 39.8047 192.191 39.7031 192.645 39.5781C193.105 39.4531 193.555 39.3086 193.992 39.1445Z" fill="black" fill-opacity="0.2"/>
</svg>
