<svg width="320" height="77" viewBox="0 0 320 77" fill="none" xmlns="http://www.w3.org/2000/svg">
<path d="M11.6133 18.8633H4.36719V14.293H11.6133C12.7331 14.293 13.6445 14.1107 14.3477 13.7461C15.0508 13.3685 15.5651 12.8477 15.8906 12.1836C16.2161 11.5195 16.3789 10.7708 16.3789 9.9375C16.3789 9.09115 16.2161 8.30339 15.8906 7.57422C15.5651 6.84505 15.0508 6.25911 14.3477 5.81641C13.6445 5.3737 12.7331 5.15234 11.6133 5.15234H6.39844V29H0.539062V0.5625H11.6133C13.8398 0.5625 15.7474 0.966146 17.3359 1.77344C18.9375 2.56771 20.1615 3.66797 21.0078 5.07422C21.8542 6.48047 22.2773 8.08854 22.2773 9.89844C22.2773 11.7344 21.8542 13.3229 21.0078 14.6641C20.1615 16.0052 18.9375 17.0404 17.3359 17.7695C15.7474 18.4987 13.8398 18.8633 11.6133 18.8633ZM45.4023 24.4297V29H30.2656V24.4297H45.4023ZM32.1797 0.5625V29H26.3203V0.5625H32.1797ZM43.4297 12.1445V16.5977H30.2656V12.1445H43.4297ZM45.3828 0.5625V5.15234H30.2656V0.5625H45.3828ZM59.4453 15.3672H55.0312V12.2617H58.5469C59.5755 12.2617 60.4089 12.1055 61.0469 11.793C61.6849 11.4674 62.1536 11.0117 62.4531 10.4258C62.7526 9.83984 62.9023 9.14974 62.9023 8.35547C62.9023 7.70443 62.7331 7.10547 62.3945 6.55859C62.069 6.01172 61.5612 5.57552 60.8711 5.25C60.181 4.91146 59.3021 4.74219 58.2344 4.74219C57.4271 4.74219 56.6914 4.88542 56.0273 5.17188C55.3633 5.45833 54.8359 5.86198 54.4453 6.38281C54.0547 6.89062 53.8594 7.50911 53.8594 8.23828H48.0195C48.0195 6.98828 48.2865 5.86849 48.8203 4.87891C49.3672 3.8763 50.1094 3.02995 51.0469 2.33984C51.9974 1.63672 53.0911 1.10286 54.3281 0.738281C55.5651 0.373698 56.8672 0.191406 58.2344 0.191406C59.8359 0.191406 61.2812 0.367188 62.5703 0.71875C63.8594 1.05729 64.9661 1.5651 65.8906 2.24219C66.8151 2.91927 67.5247 3.75911 68.0195 4.76172C68.5143 5.76432 68.7617 6.92969 68.7617 8.25781C68.7617 9.23438 68.5404 10.1523 68.0977 11.0117C67.6549 11.8711 67.0234 12.6263 66.2031 13.2773C65.3828 13.9284 64.3997 14.4427 63.2539 14.8203C62.1081 15.1849 60.8385 15.3672 59.4453 15.3672ZM55.0312 13.668H59.4453C60.9948 13.668 62.3685 13.8307 63.5664 14.1562C64.7773 14.4818 65.7995 14.957 66.6328 15.582C67.4792 16.207 68.1172 16.9818 68.5469 17.9062C68.9896 18.8177 69.2109 19.8659 69.2109 21.0508C69.2109 22.3789 68.9375 23.5573 68.3906 24.5859C67.8568 25.6146 67.0951 26.487 66.1055 27.2031C65.1289 27.9193 63.9701 28.4596 62.6289 28.8242C61.3008 29.1888 59.8359 29.3711 58.2344 29.3711C56.9583 29.3711 55.6888 29.2148 54.4258 28.9023C53.1628 28.5768 52.0169 28.082 50.9883 27.418C49.9596 26.7539 49.1393 25.901 48.5273 24.8594C47.9154 23.8177 47.6094 22.5677 47.6094 21.1094H53.4883C53.4883 21.7995 53.6901 22.431 54.0938 23.0039C54.4974 23.5638 55.0573 24.013 55.7734 24.3516C56.4896 24.6771 57.3099 24.8398 58.2344 24.8398C59.3151 24.8398 60.2331 24.6706 60.9883 24.332C61.7565 23.9935 62.3359 23.5312 62.7266 22.9453C63.1302 22.3464 63.332 21.6888 63.332 20.9727C63.332 20.2044 63.2279 19.5534 63.0195 19.0195C62.8112 18.4857 62.5052 18.0495 62.1016 17.7109C61.6979 17.3594 61.1966 17.1055 60.5977 16.9492C60.0117 16.793 59.3281 16.7148 58.5469 16.7148H55.0312V13.668ZM79.1914 19.7812L90.6172 0.5625H96.4766V29H90.6172V9.78125L79.1914 29H73.332V0.5625H79.1914V19.7812ZM120.52 12.1445V16.7148H105.676V12.1445H120.52ZM107.414 0.5625V29H101.555V0.5625H107.414ZM124.699 0.5625V29H118.859V0.5625H124.699ZM153.156 14.1172V15.4648C153.156 17.6263 152.863 19.5664 152.277 21.2852C151.691 23.0039 150.865 24.4688 149.797 25.6797C148.729 26.8776 147.453 27.7956 145.969 28.4336C144.497 29.0716 142.863 29.3906 141.066 29.3906C139.283 29.3906 137.648 29.0716 136.164 28.4336C134.693 27.7956 133.417 26.8776 132.336 25.6797C131.255 24.4688 130.415 23.0039 129.816 21.2852C129.23 19.5664 128.938 17.6263 128.938 15.4648V14.1172C128.938 11.9427 129.23 10.0026 129.816 8.29688C130.402 6.57812 131.229 5.11328 132.297 3.90234C133.378 2.69141 134.654 1.76693 136.125 1.12891C137.609 0.490885 139.243 0.171875 141.027 0.171875C142.824 0.171875 144.458 0.490885 145.93 1.12891C147.414 1.76693 148.69 2.69141 149.758 3.90234C150.839 5.11328 151.672 6.57812 152.258 8.29688C152.857 10.0026 153.156 11.9427 153.156 14.1172ZM147.238 15.4648V14.0781C147.238 12.5677 147.102 11.2396 146.828 10.0938C146.555 8.94792 146.151 7.98438 145.617 7.20312C145.083 6.42188 144.432 5.83594 143.664 5.44531C142.896 5.04167 142.017 4.83984 141.027 4.83984C140.038 4.83984 139.159 5.04167 138.391 5.44531C137.635 5.83594 136.991 6.42188 136.457 7.20312C135.936 7.98438 135.539 8.94792 135.266 10.0938C134.992 11.2396 134.855 12.5677 134.855 14.0781V15.4648C134.855 16.9622 134.992 18.2904 135.266 19.4492C135.539 20.5951 135.943 21.5651 136.477 22.3594C137.01 23.1406 137.661 23.7331 138.43 24.1367C139.198 24.5404 140.077 24.7422 141.066 24.7422C142.056 24.7422 142.935 24.5404 143.703 24.1367C144.471 23.7331 145.116 23.1406 145.637 22.3594C146.158 21.5651 146.555 20.5951 146.828 19.4492C147.102 18.2904 147.238 16.9622 147.238 15.4648ZM168.508 16.5195H161.203L161.164 12.4961H167.297C168.378 12.4961 169.263 12.3594 169.953 12.0859C170.643 11.7995 171.158 11.3893 171.496 10.8555C171.848 10.3086 172.023 9.64453 172.023 8.86328C172.023 7.97786 171.854 7.26172 171.516 6.71484C171.19 6.16797 170.676 5.77083 169.973 5.52344C169.283 5.27604 168.391 5.15234 167.297 5.15234H163.234V29H157.375V0.5625H167.297C168.951 0.5625 170.428 0.71875 171.73 1.03125C173.046 1.34375 174.159 1.81901 175.07 2.45703C175.982 3.09505 176.678 3.90234 177.16 4.87891C177.642 5.84245 177.883 6.98828 177.883 8.31641C177.883 9.48828 177.616 10.569 177.082 11.5586C176.561 12.5482 175.734 13.3555 174.602 13.9805C173.482 14.6055 172.017 14.9505 170.207 15.0156L168.508 16.5195ZM168.254 29H159.602L161.887 24.4297H168.254C169.283 24.4297 170.122 24.2669 170.773 23.9414C171.424 23.6029 171.906 23.1471 172.219 22.5742C172.531 22.0013 172.688 21.3438 172.688 20.6016C172.688 19.7682 172.544 19.0456 172.258 18.4336C171.984 17.8216 171.542 17.3529 170.93 17.0273C170.318 16.6888 169.51 16.5195 168.508 16.5195H162.863L162.902 12.4961H169.934L171.281 14.0781C173.013 14.0521 174.406 14.3581 175.461 14.9961C176.529 15.6211 177.303 16.4349 177.785 17.4375C178.28 18.4401 178.527 19.5143 178.527 20.6602C178.527 22.4831 178.13 24.0195 177.336 25.2695C176.542 26.5065 175.376 27.4375 173.84 28.0625C172.316 28.6875 170.454 29 168.254 29ZM194.484 5.42578L186.75 29H180.52L191.086 0.5625H195.051L194.484 5.42578ZM200.91 29L193.156 5.42578L192.531 0.5625H196.535L207.16 29H200.91ZM200.559 18.4141V23.0039H185.539V18.4141H200.559ZM224.914 18.668H217.18L215.207 17.8477C212.98 17.1445 211.275 16.0898 210.09 14.6836C208.918 13.2773 208.332 11.487 208.332 9.3125C208.332 7.39844 208.755 5.79688 209.602 4.50781C210.461 3.20573 211.672 2.22266 213.234 1.55859C214.81 0.894531 216.678 0.5625 218.84 0.5625H228.762V29H222.883V5.15234H218.84C217.238 5.15234 216.06 5.54948 215.305 6.34375C214.549 7.13802 214.172 8.26432 214.172 9.72266C214.172 10.7904 214.348 11.6693 214.699 12.3594C215.051 13.0365 215.565 13.5443 216.242 13.8828C216.919 14.2083 217.772 14.3711 218.801 14.3711H224.895L224.914 18.668ZM219.27 16.3047L212.961 29H206.613L212.941 16.3047H219.27Z" fill="#C6057F"/>
<path d="M6.41797 47.5625V76H0.558594V47.5625H6.41797ZM23.1758 47.5625L12.2773 64.2617H5.10938L4.36719 59.0469H9.15234L16.0664 47.5625H23.1758ZM17.1406 76L9.17188 63.2852L13.2344 59.1055L24.0938 76H17.1406ZM37.4727 65.8633H30.2266V61.293H37.4727C38.5924 61.293 39.5039 61.1107 40.207 60.7461C40.9102 60.3685 41.4245 59.8477 41.75 59.1836C42.0755 58.5195 42.2383 57.7708 42.2383 56.9375C42.2383 56.0911 42.0755 55.3034 41.75 54.5742C41.4245 53.8451 40.9102 53.2591 40.207 52.8164C39.5039 52.3737 38.5924 52.1523 37.4727 52.1523H32.2578V76H26.3984V47.5625H37.4727C39.6992 47.5625 41.6068 47.9661 43.1953 48.7734C44.7969 49.5677 46.0208 50.668 46.8672 52.0742C47.7135 53.4805 48.1367 55.0885 48.1367 56.8984C48.1367 58.7344 47.7135 60.3229 46.8672 61.6641C46.0208 63.0052 44.7969 64.0404 43.1953 64.7695C41.6068 65.4987 39.6992 65.8633 37.4727 65.8633ZM60.5 52.4258L52.7656 76H46.5352L57.1016 47.5625H61.0664L60.5 52.4258ZM66.9258 76L59.1719 52.4258L58.5469 47.5625H62.5508L73.1758 76H66.9258ZM66.5742 65.4141V70.0039H51.5547V65.4141H66.5742ZM91.9453 66.5664H97.7852C97.668 68.4805 97.1406 70.1797 96.2031 71.6641C95.2786 73.1484 93.9831 74.3073 92.3164 75.1406C90.6628 75.974 88.6706 76.3906 86.3398 76.3906C84.5169 76.3906 82.8828 76.0781 81.4375 75.4531C79.9922 74.8151 78.7552 73.9036 77.7266 72.7188C76.7109 71.5339 75.9362 70.1016 75.4023 68.4219C74.8685 66.7422 74.6016 64.8607 74.6016 62.7773V60.8047C74.6016 58.7214 74.875 56.8398 75.4219 55.1602C75.9818 53.4674 76.776 52.0286 77.8047 50.8438C78.8464 49.6589 80.0898 48.7474 81.5352 48.1094C82.9805 47.4714 84.5951 47.1523 86.3789 47.1523C88.7487 47.1523 90.7474 47.582 92.375 48.4414C94.0156 49.3008 95.2852 50.4857 96.1836 51.9961C97.0951 53.5065 97.6419 55.2253 97.8242 57.1523H91.9648C91.8997 56.0065 91.6719 55.0365 91.2812 54.2422C90.8906 53.4349 90.2982 52.8294 89.5039 52.4258C88.7227 52.0091 87.681 51.8008 86.3789 51.8008C85.4023 51.8008 84.5495 51.9831 83.8203 52.3477C83.0911 52.7122 82.4792 53.2656 81.9844 54.0078C81.4896 54.75 81.1185 55.6875 80.8711 56.8203C80.6367 57.9401 80.5195 59.2552 80.5195 60.7656V62.7773C80.5195 64.2487 80.6302 65.5443 80.8516 66.6641C81.0729 67.7708 81.4115 68.7083 81.8672 69.4766C82.3359 70.2318 82.9349 70.8047 83.6641 71.1953C84.4062 71.5729 85.2982 71.7617 86.3398 71.7617C87.5638 71.7617 88.5729 71.5664 89.3672 71.1758C90.1615 70.7852 90.7669 70.2057 91.1836 69.4375C91.6133 68.6693 91.8672 67.7122 91.9453 66.5664ZM107.512 47.5625V76H101.652V47.5625H107.512ZM124.27 47.5625L113.371 64.2617H106.203L105.461 59.0469H110.246L117.16 47.5625H124.27ZM118.234 76L110.266 63.2852L114.328 59.1055L125.188 76H118.234ZM139.055 52.4258L131.32 76H125.09L135.656 47.5625H139.621L139.055 52.4258ZM145.48 76L137.727 52.4258L137.102 47.5625H141.105L151.73 76H145.48ZM145.129 65.4141V70.0039H130.109V65.4141H145.129ZM172.355 57.9336L167.609 65.8047L163.273 65.7852V65.5312L168.742 57.9336H172.355ZM167.609 65.6289L172.355 73.5195H168.742L163.273 65.9023V65.6484L167.609 65.6289ZM179.914 57.9336L175.168 65.8047L170.832 65.7852V65.5312L176.301 57.9336H179.914ZM175.168 65.6289L179.914 73.5195H176.301L170.832 65.9023V65.6484L175.168 65.6289ZM190.207 47.5625V76H184.348V47.5625H190.207ZM206.965 47.5625L196.066 64.2617H188.898L188.156 59.0469H192.941L199.855 47.5625H206.965ZM200.93 76L192.961 63.2852L197.023 59.1055L207.883 76H200.93ZM232.922 61.1172V62.4648C232.922 64.6263 232.629 66.5664 232.043 68.2852C231.457 70.0039 230.63 71.4688 229.562 72.6797C228.495 73.8776 227.219 74.7956 225.734 75.4336C224.263 76.0716 222.629 76.3906 220.832 76.3906C219.048 76.3906 217.414 76.0716 215.93 75.4336C214.458 74.7956 213.182 73.8776 212.102 72.6797C211.021 71.4688 210.181 70.0039 209.582 68.2852C208.996 66.5664 208.703 64.6263 208.703 62.4648V61.1172C208.703 58.9427 208.996 57.0026 209.582 55.2969C210.168 53.5781 210.995 52.1133 212.062 50.9023C213.143 49.6914 214.419 48.7669 215.891 48.1289C217.375 47.4909 219.009 47.1719 220.793 47.1719C222.59 47.1719 224.224 47.4909 225.695 48.1289C227.18 48.7669 228.456 49.6914 229.523 50.9023C230.604 52.1133 231.438 53.5781 232.023 55.2969C232.622 57.0026 232.922 58.9427 232.922 61.1172ZM227.004 62.4648V61.0781C227.004 59.5677 226.867 58.2396 226.594 57.0938C226.32 55.9479 225.917 54.9844 225.383 54.2031C224.849 53.4219 224.198 52.8359 223.43 52.4453C222.661 52.0417 221.783 51.8398 220.793 51.8398C219.803 51.8398 218.924 52.0417 218.156 52.4453C217.401 52.8359 216.757 53.4219 216.223 54.2031C215.702 54.9844 215.305 55.9479 215.031 57.0938C214.758 58.2396 214.621 59.5677 214.621 61.0781V62.4648C214.621 63.9622 214.758 65.2904 215.031 66.4492C215.305 67.5951 215.708 68.5651 216.242 69.3594C216.776 70.1406 217.427 70.7331 218.195 71.1367C218.964 71.5404 219.842 71.7422 220.832 71.7422C221.822 71.7422 222.701 71.5404 223.469 71.1367C224.237 70.7331 224.882 70.1406 225.402 69.3594C225.923 68.5651 226.32 67.5951 226.594 66.4492C226.867 65.2904 227.004 63.9622 227.004 62.4648ZM245.754 64.2812L234.914 47.5625H242.199L248.566 59.0859H253.508L252.746 64.2812H245.754ZM248.527 63.3828L241.789 76H234.484L243.801 59.9844L248.527 63.3828ZM257.336 47.5625V76H251.516V47.5625H257.336ZM273.703 47.5625L263.02 64.2812H256.066L255.305 59.0859H260.207L266.418 47.5625H273.703ZM266.828 76L260.246 63.3828L264.992 59.9844L274.133 76H266.828ZM288.273 52.4258L280.539 76H274.309L284.875 47.5625H288.84L288.273 52.4258ZM294.699 76L286.945 52.4258L286.32 47.5625H290.324L300.949 76H294.699ZM294.348 65.4141V70.0039H279.328V65.4141H294.348ZM302.727 73.5195L307.473 65.6289L311.828 65.6484V65.9023L306.359 73.5195H302.727ZM302.727 57.9336H306.359L311.828 65.5312V65.7852L307.473 65.8047L302.727 57.9336ZM310.383 73.5195L315.129 65.6289L319.484 65.6484V65.9023L314.016 73.5195H310.383ZM310.383 57.9336H314.016L319.484 65.5312V65.7852L315.129 65.8047L310.383 57.9336Z" fill="#044A9B"/>
</svg>
